<?xml version="1.0" encoding="utf-8"?>
<!-- Generator: Adobe Illustrator 28.0.0, SVG Export Plug-In . SVG Version: 6.00 Build 0)  -->
<!DOCTYPE svg PUBLIC "-//W3C//DTD SVG 1.1//EN" "http://www.w3.org/Graphics/SVG/1.1/DTD/svg11.dtd" [
	<!ENTITY ns_extend "http://ns.adobe.com/Extensibility/1.0/">
	<!ENTITY ns_ai "http://ns.adobe.com/AdobeIllustrator/10.0/">
	<!ENTITY ns_graphs "http://ns.adobe.com/Graphs/1.0/">
	<!ENTITY ns_vars "http://ns.adobe.com/Variables/1.0/">
	<!ENTITY ns_imrep "http://ns.adobe.com/ImageReplacement/1.0/">
	<!ENTITY ns_sfw "http://ns.adobe.com/SaveForWeb/1.0/">
	<!ENTITY ns_custom "http://ns.adobe.com/GenericCustomNamespace/1.0/">
	<!ENTITY ns_adobe_xpath "http://ns.adobe.com/XPath/1.0/">
]>
<svg version="1.1" id="Layer_1" xmlns:x="&ns_extend;" xmlns:i="&ns_ai;" xmlns:graph="&ns_graphs;"
	 xmlns="http://www.w3.org/2000/svg" xmlns:xlink="http://www.w3.org/1999/xlink" x="0px" y="0px" viewBox="0 0 1096 570.6"
	 style="enable-background:new 0 0 1096 570.6;" xml:space="preserve">
<style type="text/css">
	.st0{fill:#FF00A1;}
</style>
<metadata>
	<sfw  xmlns="&ns_sfw;">
		<slices></slices>
		<sliceSourceBounds  bottomLeftOrigin="true" height="515.7" width="1042.4" x="26.8" y="27.4"></sliceSourceBounds>
	</sfw>
</metadata>
<path id="thread" class="st0" d="M825.2,203.2c-0.3-1.7,2.7-1,3.8-2.2C830.2,202.6,826.4,203,825.2,203.2z M824.4,203.1
	c-1.2-0.2-5.3-1.1-3.5-2.6C821.8,201.9,824.9,201.3,824.4,203.1z M831.8,200.9c-1-1.6,2.2-1.8,3.5-2.8
	C836.4,199.7,832.6,200,831.8,200.9z M818.6,199.2c-0.3-1.3-3.1-3.7-1.2-4.3C817.8,196.3,820.6,198.5,818.6,199.2z M838,197.8
	c-1.3-1.6,2.2-1.9,3.3-2.9C842.7,196.5,838.9,197,838,197.8z M844.1,194.7c-1.3-1.6,2.2-1.9,3.3-2.9
	C848.7,193.3,845.1,193.7,844.1,194.7z M815.3,193.1c-0.3-1.3-3-3.7-1.1-4.3C814.6,190.2,817.3,192.4,815.3,193.1z M850.1,191.4
	c-1.3-1.6,2.2-2,3.2-3C854.6,189.9,851.1,190.4,850.1,191.4z M856,187.9c-1.3-1.5,2.1-2.1,3.2-3.1C860.5,186.3,857,186.9,856,187.9z
	 M812.1,187.1c-0.3-1.3-3-3.7-1.1-4.3C811.4,184.2,814,186.4,812.1,187.1z M861.9,184.3c-1.2-1.4,2.2-2,3.1-3.1
	C866.3,182.6,862.8,183.4,861.9,184.3z M809,181c-0.2-1.3-3-3.7-1-4.2C808.3,178.2,811,180.5,809,181z M867.7,180.6
	c-1.5-1.4,2.1-2.2,3-3.2C872.2,178.7,868.6,179.5,867.7,180.6z M873.4,176.7c-1.4-1.4,2-2.2,2.9-3.3
	C877.8,174.8,874.2,175.7,873.4,176.7z M805.9,174.8c-0.2-1.3-3-3.8-1-4.3C805.2,171.8,807.9,174.3,805.9,174.8z M878.9,172.7
	c-1.5-1.3,2-2.2,2.8-3.4C883.2,170.6,879.9,171.7,878.9,172.7z M802.9,168.6c-0.2-1.4-2.8-3.8-0.9-4.3
	C802.3,165.6,804.8,168.1,802.9,168.6z M884.4,168.5c-1.4-1.3,1.9-2.4,2.7-3.5C888.6,166.3,885.3,167.5,884.4,168.5z M889.8,164.2
	c-1.4-1.4,1.9-2.4,2.7-3.6C894.2,161.9,890.5,163.1,889.8,164.2z M799.9,162.4c-0.2-1.4-2.8-3.8-0.9-4.3
	C799.3,159.4,801.8,161.9,799.9,162.4z M895,159.7c-1.6-1.1,1.7-2.4,2.5-3.6C899.2,157.2,895.7,158.6,895,159.7z M797,156.2
	c-0.2-1.4-2.8-3.8-0.9-4.3C796.4,153.2,798.9,155.7,797,156.2z M900,155.1c-1.6-1.1,1.6-2.4,2.3-3.6
	C904.2,152.4,900.7,153.9,900,155.1z M904.9,150.2c-1.6-1.1,1.6-2.6,2.2-3.8C908.8,147.5,905.6,149,904.9,150.2z M794.2,149.9
	c-0.2-1.3-2.7-3.8-0.8-4.3C793.6,146.9,796.1,149.4,794.2,149.9z M909.6,145.2c-1.6-1.1,1.6-2.6,2.1-3.9
	C913.5,142.2,910.2,143.9,909.6,145.2z M791.5,143.6c-0.2-1.3-2.7-3.9-0.8-4.4C790.8,140.5,793.5,143.1,791.5,143.6z M914.1,140
	c-1.8-0.9,1.3-2.7,1.9-3.9C917.8,136.9,914.7,138.7,914.1,140z M788.9,137.3c-0.1-1.4-2.6-3.9-0.7-4.4
	C788.4,134.2,790.9,136.8,788.9,137.3z M918.3,134.6c-1.8-0.9,1.3-2.8,1.7-4.1C921.8,131.3,918.9,133.2,918.3,134.6z M786.3,130.9
	c-0.1-1.4-2.5-3.9-0.6-4.4C785.9,127.8,788.2,130.4,786.3,130.9z M922.3,128.9c-1.8-0.7,1.2-2.8,1.5-4.1
	C925.8,125.4,922.7,127.6,922.3,128.9z M783.9,124.5c-0.1-1.3-2.5-4-0.6-4.3C783.4,121.5,785.8,124.2,783.9,124.5z M925.9,123
	c-1.9-0.6,0.9-2.9,1.1-4.2C929,119.4,926.3,121.6,925.9,123z M781.5,118c-0.1-1.4-2.4-4.1-0.5-4.4
	C781.1,114.8,783.4,117.7,781.5,118z M929.1,116.9c-1.9-0.4,0.6-3,0.9-4.2C931.9,113.1,929.4,115.5,929.1,116.9z M779.3,111.5
	c0-1.4-2.4-4.2-0.3-4.4C779.1,108.5,781.4,111.2,779.3,111.5z M931.9,110.6c-1.9-0.5,0.5-3,0.6-4.4
	C934.4,106.5,932,109.3,931.9,110.6z M777.3,104.9c0-1.5-2.2-4.2-0.2-4.4C777.2,101.9,779.4,104.6,777.3,104.9z M934.1,104.1
	c-2-0.2,0.2-3.1,0.1-4.4C936.3,99.7,934.3,102.7,934.1,104.1z M775.4,98.3c0-1.4-2.1-4.4-0.1-4.4C775.3,95.2,777.3,98.1,775.4,98.3z
	 M935.8,97.4c-2,0-0.1-3-0.3-4.4C937.6,92.8,935.8,96.1,935.8,97.4z M773.8,91.6c0.1-1.4-1.9-4.4,0.1-4.4
	C773.9,88.6,775.9,91.5,773.8,91.6z M936.9,90.6c-2,0.2-0.3-2.9-0.7-4.3C938.2,85.9,936.7,89.2,936.9,90.6z M772.4,84.9
	c0.1-1.5-1.7-4.5,0.4-4.4C772.7,81.9,774.4,84.8,772.4,84.9z M937.3,83.7c-2,0.3-0.6-2.9-1.1-4.3C938.2,78.8,937,82.4,937.3,83.7z
	 M771.5,78c0.2-1.4-1.3-4.6,0.7-4.3C772,74.9,773.5,78.3,771.5,78z M935.9,76.9c0.3-1.4-1.5-4.4,0.5-4.4
	C936.3,73.9,938.1,77.1,935.9,76.9z M772.1,71.1c-2,0.4-0.7-3.1-0.8-4.3C773.3,66.6,771.7,69.6,772.1,71.1z M934.9,70.2
	c0.1-1.4-2.1-4.4,0-4.4C934.9,67.1,937,70.1,934.9,70.2z M772.7,64.4c-2.1,0-0.1-3.1,0-4.4C774.7,60.2,772.5,62.9,772.7,64.4z
	 M933.3,63.5c0-1.4-2.2-4.1-0.3-4.4C933.1,60.4,935.4,63.3,933.3,63.5z M774.4,57.9c-1.9-0.5,0.5-3.1,0.9-4.4
	C777.2,54.1,774.5,56.5,774.4,57.9z M931.2,57c-0.1-1.5-2.6-3.9-0.7-4.4C930.7,53.9,933.2,56.5,931.2,57z M854.4,51.9
	c-2.2-4.9-0.6-1.9,1.2-2.6C857.1,50.1,855,51,854.4,51.9z M777.5,51.8c-1.8-0.7,1.2-2.8,1.7-4C781,48.6,777.8,50.5,777.5,51.8z
	 M928.6,50.7c-0.3-1.4-2.9-3.7-1-4.3C928,47.7,930.7,50.1,928.6,50.7z M858.2,48.3c-1.7-1.2,1.9-2.4,2.5-3.5
	C862.2,46,859,47.1,858.2,48.3z M851.9,46.8c-0.4-1.4-3.4-2.9-1.9-4C850.7,43.9,853.7,46,851.9,46.8z M781.6,46.5
	c-1.6-1.1,1.6-2.5,2.4-3.7C785.4,44.1,782.4,45.2,781.6,46.5z M925.4,44.8c-0.5-1.4-3.4-3.2-1.6-4.1
	C924.2,41.8,927.4,44.1,925.4,44.8z M863.3,43.9c-1.5-1.4,2-2.4,2.8-3.4C867.6,41.8,864.3,42.7,863.3,43.9z M786.7,42
	c-1.4-1.3,2-2.3,3-3.2C791,40.3,787.6,40.9,786.7,42z M847.5,41.7c-0.7-1.2-4.1-2.1-2.7-3.4C845.7,39.2,849.2,40.5,847.5,41.7z
	 M868.8,39.8c-1.5-1.4,2.1-2.2,3-3.2C873.1,38,869.8,38.6,868.8,39.8z M921.4,39.3c-0.6-1.3-3.9-2.6-2.3-3.7
	C919.8,36.6,923.1,38.2,921.4,39.3z M792.4,38.4c-1.3-1.6,2.3-2,3.4-2.8C796.9,37.2,793.4,37.4,792.4,38.4z M842.1,37.7
	c-0.9-1-4.5-1.2-3.4-2.8C839.7,35.7,843.4,36.2,842.1,37.7z M874.5,36.1c-1.3-1.6,2.3-2,3.3-3C879.1,34.6,875.6,34.9,874.5,36.1z
	 M798.6,35.6c-1.1-1.7,2.5-1.6,3.7-2.3C803.3,35,799.7,34.7,798.6,35.6z M836,34.8c-1.2-0.8-4.7-0.5-3.7-2.3
	C833.6,33.2,837.2,33,836,34.8z M916.5,34.6c-0.8-1.2-4.3-1.8-3-3.3C914.5,32.2,918,33.1,916.5,34.6z M805,33.5
	c-0.8-1.9,2.8-1.3,4-1.9C809.8,33.4,806.3,32.8,805,33.5z M829.5,32.9c-1.3-0.7-4.6,0.2-4.1-1.7C826.8,31.7,830.3,31,829.5,32.9z
	 M880.6,32.9c-1.1-1.6,2.5-1.8,3.6-2.6C885.1,31.9,881.7,31.9,880.6,32.9z M811.7,32.3c-0.6-1.9,2.9-1,4.2-1.4
	C816.3,32.8,813.1,31.8,811.7,32.3z M822.8,32c-1.3-0.5-4.6,0.9-4.3-1.1C819.9,31.2,823.2,30,822.8,32z M910.8,31.1
	c-1.2-1-4.5-0.7-3.6-2.5C908.4,29.2,912.2,29.3,910.8,31.1z M886.9,30.4c-1-1.8,2.7-1.5,3.9-2.1C891.6,30.1,888.2,29.6,886.9,30.4z
	 M904.4,29c-1.3-0.7-4.6,0.4-4.1-1.5C901.7,27.9,905.2,27,904.4,29z M893.5,28.9c-0.5-2,3-1,4.2-1.4
	C898.1,29.4,894.8,28.3,893.5,28.9z M609.5,281.6c-1-0.1-4.1-0.1-2.9-1.7C607.9,280.6,612.9,280.7,609.5,281.6z M613.2,281.2
	c-1.1-1.7,3.5-1.2,4.1-1.6C618.5,281.3,613.8,280.8,613.2,281.2z M620,280.3c-1.1-1.7,3.5-1.2,4.1-1.6
	C625.3,280.4,620.6,279.9,620,280.3z M626.8,279.3c-1.1-1.4,5.1-2.3,4.3-0.6C631.1,278.7,626.8,279.3,626.8,279.3z M604,279.2
	c-1.4-1.3-3.6-7.4-1.4-7.7C602.1,274,605.2,277.8,604,279.2z M633.6,278.4c-1.1-1.7,3.5-1.2,4.1-1.6
	C638.9,278.5,634.2,278,633.6,278.4z M640.4,277.5c-1.1-1.7,3.5-1.2,4.1-1.6C645.7,277.6,641,277.1,640.4,277.5z M647.2,276.5
	c-1.1-1.4,5.1-2.3,4.3-0.6L647.2,276.5z M654,275.6c-1.1-1.7,3.5-1.2,4.1-1.6C659.3,275.7,654.6,275.2,654,275.6z M660.8,274.7
	c-1.1-1.7,3.5-1.2,4.1-1.6C666.1,274.8,661.4,274.3,660.8,274.7z M667.6,273.8c-1.1-1.4,5.1-2.3,4.3-0.6
	C671.9,273.2,667.6,273.8,667.6,273.8z M674.4,272.8c-1.1-1.7,3.5-1.2,4.1-1.6C679.7,272.9,675,272.4,674.4,272.8z M681.2,271.9
	c-1.1-1.7,3.5-1.2,4.1-1.6C686.5,272,681.8,271.5,681.2,271.9z M688,271c-1.1-1.4,5.1-2.3,4.3-0.6L688,271z M694.8,270
	c-1.1-1.7,3.5-1.2,4.1-1.6C700.1,270.1,695.4,269.6,694.8,270z M701.6,269.1c-1.1-1.7,3.5-1.2,4.1-1.6
	C706.9,269.2,702.2,268.7,701.6,269.1z M601.2,269.1c0.2-0.6-1.6-5.2,0.4-4.4C601.4,265.3,603.3,269.8,601.2,269.1z M708.4,268.2
	c-1.1-1.4,5.1-2.3,4.3-0.6L708.4,268.2z M715.2,267.2c-1.1-1.7,3.5-1.2,4.1-1.6C720.6,267.3,715.9,266.7,715.2,267.2z M722,265.7
	c-1.2-1.4,1.9-2.1,2.1-3.8C726.2,262.4,723,265,722,265.7z M600.3,262.3c0.2-0.6-1.6-5.2,0.4-4.4C600.5,258.5,602.4,263,600.3,262.3
	z M725.7,259.7c-1.3,0.5-2.2-5-0.5-4.4C725.3,256.3,725.8,258.7,725.7,259.7z M599.4,255.5l-0.6-4.2
	C600.2,250.2,601.1,256.3,599.4,255.5z M723.9,252.9c0.2-0.6-1.6-5.2,0.4-4.4C724.1,249.1,726,253.6,723.9,252.9z M598.4,248.7
	c0.2-0.6-1.6-5.2,0.4-4.4C598.6,244.9,600.5,249.4,598.4,248.7z M723,246.1l-0.6-4.2C723.8,240.8,724.7,246.9,723,246.1z
	 M634.5,244.8c-0.7-1.7,0.6-4.3,0.9-1.1C639.1,243.1,636.6,245.1,634.5,244.8z M639.8,244.1c-1.1-1.7,3.5-1.2,4.1-1.6
	C645.1,244.2,640.4,243.7,639.8,244.1z M646.6,243.1c-1.1-1.7,3.5-1.2,4.1-1.6C651.9,243.2,647.2,242.7,646.6,243.1z M653.3,242.2
	c-1.1-1.4,5.1-2.3,4.3-0.6C657.6,241.6,653.3,242.2,653.3,242.2z M597.5,241.9c0.2-0.6-1.6-5.2,0.4-4.4
	C597.7,238.1,599.6,242.6,597.5,241.9z M635.8,241.3c-1.1-1.7,3.5-1.2,4.1-1.6C641.1,241.4,636.4,240.9,635.8,241.3z M660.1,241.3
	c-1.1-1.7,3.5-1.2,4.1-1.6C665.4,241.4,660.7,240.9,660.1,241.3z M642.6,240.4c-1.1-1.4,5.1-2.3,4.3-0.6
	C646.9,239.8,642.6,240.4,642.6,240.4z M666.9,240.3c-1.1-1.7,3.5-1.2,4.1-1.6C672.2,240.4,667.5,239.9,666.9,240.3z M649.4,239.5
	c-1.1-1.7,3.5-1.2,4.1-1.6C654.7,239.6,650,239.1,649.4,239.5z M673.7,239.4c-1.1-1.4,5.1-2.3,4.3-0.6
	C678,238.8,673.7,239.4,673.7,239.4z M722,239.3c0.2-1.6-2.5-3.2-1-4.2C721.8,235.9,724.2,239.4,722,239.3z M656.2,238.5
	c-1.1-1.7,3.5-1.2,4.1-1.6C661.5,238.6,656.8,238.1,656.2,238.5z M680.5,238.5c-1.1-1.7,3.5-1.2,4.1-1.6
	C685.8,238.6,681.1,238.1,680.5,238.5z M663,237.6c-1.1-1.4,5.1-2.3,4.3-0.6L663,237.6z M687.3,237.6c-1.1-1.7,3.5-1.2,4.1-1.6
	C692.6,237.7,687.9,237.2,687.3,237.6z M669.8,236.7c-1.1-1.7,3.5-1.2,4.1-1.6C675.1,236.8,670.4,236.3,669.8,236.7z M694.1,236.6
	c-1.1-1.4,5.1-2.3,4.3-0.6C698.4,236,694.1,236.6,694.1,236.6z M676.6,235.7c-1.1-1.7,3.5-1.2,4.1-1.6
	C681.9,235.8,677.2,235.3,676.6,235.7z M700.9,235.7c-1.1-1.7,3.5-1.2,4.1-1.6C706.2,235.8,701.5,235.3,700.9,235.7z M596.6,235.1
	l-0.6-4.2C597.4,229.8,598.3,235.9,596.6,235.1z M683.4,234.8c-1.1-1.4,5.1-2.3,4.3-0.6L683.4,234.8z M707.7,234.8
	c-1.1-1.7,3.5-1.2,4.1-1.6C713,234.9,708.3,234.4,707.7,234.8z M718.4,234.4c-1.3-0.7-2.5-0.8-3.9-0.6
	C713.5,231.7,720.2,232.7,718.4,234.4z M690.2,233.9c-1.1-1.7,3.5-1.2,4.1-1.6C695.5,234,690.8,233.5,690.2,233.9z M697,232.9
	c-1.1-1.7,3.5-1.2,4.1-1.6C702.3,233,697.6,232.5,697,232.9z M703.8,232c-0.2-0.8-0.1-1.2,0.8-1.1
	C709.6,228.9,707.7,231.8,703.8,232z M709.9,228.6c-1.6-0.8,0.8-2.8,0.3-4.4C712.4,223.8,710.5,227.5,709.9,228.6z M595.6,228.3
	l-0.6-4.2C596.4,223,597.3,229.1,595.6,228.3z M709.9,221.8c0.2-0.6-1.6-5.2,0.4-4.4C710.1,218,712,222.5,709.9,221.8z M594.7,221.5
	c0.2-0.6-1.6-5.2,0.4-4.4C594.9,217.7,596.8,222.2,594.7,221.5z M708.9,215c0.2-0.6-1.6-5.2,0.4-4.4
	C709.1,211.2,711,215.7,708.9,215z M593.8,214.7c0.2-0.6-1.6-5.2,0.4-4.4C594,210.9,595.9,215.4,593.8,214.7z M629.6,209.2
	c-0.7-1.5,0.5-3.8,0.9-1.1C634.7,207.3,632,209.5,629.6,209.2z M635.2,208.5c-1.1-1.4,5.1-2.3,4.3-0.6L635.2,208.5z M708,208.2
	c0.2-1.2-1.5-4.6,0.4-4.5C708.4,204.7,710.2,208.7,708,208.2z M592.8,207.9l-0.6-4.2C593.6,202.6,594.5,208.7,592.8,207.9z
	 M642,207.5c-1.1-1.7,3.5-1.2,4.1-1.6C647.3,207.6,642.6,207.1,642,207.5z M648.8,206.6c-1.1-1.7,3.5-1.2,4.1-1.6
	C654.1,206.7,649.4,206.2,648.8,206.6z M630.5,205.7c-1.1-1.7,3.5-1.2,4.1-1.6C635.8,205.8,631.1,205.3,630.5,205.7z M655.6,205.7
	c-1.1-1.4,5.1-2.3,4.3-0.6C659.9,205.1,655.6,205.7,655.6,205.7z M637.3,204.8c-1.1-1.4,5.1-2.3,4.3-0.6L637.3,204.8z M662.4,204.8
	c-1.1-1.7,3.5-1.2,4.1-1.6C667.7,204.9,663,204.4,662.4,204.8z M644.1,203.8c-1.1-1.7,3.5-1.2,4.1-1.6
	C649.4,203.9,644.7,203.4,644.1,203.8z M669.2,203.8c-1.1-1.7,3.5-1.2,4.1-1.6C674.5,203.9,669.8,203.4,669.2,203.8z M650.9,202.9
	c-1.1-1.7,3.5-1.2,4.1-1.6C656.2,203,651.5,202.5,650.9,202.9z M676,202.9c-1.1-1.4,5.1-2.3,4.3-0.6
	C680.3,202.3,676,202.9,676,202.9z M657.7,202c-1.1-1.4,5.1-2.3,4.3-0.6L657.7,202z M682.8,202c-1.1-1.7,3.5-1.2,4.1-1.6
	C688.1,202.1,683.4,201.6,682.8,202z M706.2,201.9c-0.6-1.6-3.9-1.5-3-3.2C704.4,199.1,708.2,200.7,706.2,201.9z M591.9,201.1
	c0.2-0.6-1.6-5.2,0.4-4.4C592.1,197.3,594,201.8,591.9,201.1z M664.5,201c-1.1-1.7,3.5-1.2,4.1-1.6
	C669.8,201.1,665.1,200.6,664.5,201z M689.6,201c-1.1-1.7,3.5-1.2,4.1-1.6C694.9,201.1,690.2,200.6,689.6,201z M671.3,200.1
	c-1.1-1.4,5.1-2.3,4.3-0.6L671.3,200.1z M696.4,200.1c-1-1.7,3.5-1.2,4.2-1.5C701.7,200.3,697.1,199.7,696.4,200.1z M678.1,199.2
	c-1.1-1.7,3.5-1.2,4.1-1.6C683.4,199.3,678.7,198.8,678.1,199.2z M684.9,198.3c-1.1-1.7,3.5-1.2,4.1-1.6
	C690.2,198.4,685.5,197.9,684.9,198.3z M691.7,197.3c-1.1-1.4,5.1-2.3,4.3-0.6L691.7,197.3z M698.5,196.4c-1.1-1.7,3.5-1.2,4.1-1.6
	C703.8,196.5,699.1,196,698.5,196.4z M705.3,195.5c-1.1-1.4,4.9-2.3,4.3-0.6L705.3,195.5z M591,194.3c0.2-0.6-1.6-5.2,0.4-4.4
	C591.2,190.5,593.1,195,591,194.3z M712.1,194c-1.2-1.4,2-2.2,2.1-3.8C716.4,190.8,713.1,193.3,712.1,194z M715.8,188
	c-1.7,0.3-1-3.1-1.5-4.2C716.1,183,715.6,187,715.8,188z M590.1,187.5c-0.5-1.3-0.6-6.9,0.6-3.1C590.6,185.1,592,188,590.1,187.5z
	 M714.1,181.2l-0.6-4.2C714.9,175.9,715.8,182,714.1,181.2z M591.1,180.9c-2.2-0.6,1.1-3.1,2.1-3.8
	C594.4,178.5,591.4,179.2,591.1,180.9z M595.9,177.1c-1.2-1.8,3.3-1.2,4-1.6C601,177.3,596.5,176.5,595.9,177.1z M602.7,176.2
	c-1.1-1.4,5.1-2.3,4.3-0.6C607,175.6,602.7,176.2,602.7,176.2z M609.5,175.2c-1.1-1.7,3.5-1.2,4.1-1.6
	C614.8,175.3,610.1,174.8,609.5,175.2z M713.1,174.4c0.2-0.6-1.6-5.2,0.4-4.4C713.3,170.6,715.2,175.1,713.1,174.4z M616.3,174.3
	c-1.1-1.7,3.5-1.2,4.1-1.6C621.6,174.4,616.9,173.9,616.3,174.3z M623.1,173.4c-1.1-1.4,5.1-2.3,4.3-0.6
	C627.4,172.8,623.1,173.4,623.1,173.4z M629.9,172.4c-1.1-1.7,3.5-1.2,4.1-1.6C635.2,172.5,630.5,172,629.9,172.4z M636.7,171.5
	c-1.1-1.7,3.5-1.2,4.1-1.6C642,171.6,637.3,171.1,636.7,171.5z M643.5,170.6c-1.1-1.4,5.1-2.3,4.3-0.6L643.5,170.6z M650.2,169.6
	c-1.1-1.7,3.5-1.2,4.1-1.6C655.5,169.7,650.8,169.2,650.2,169.6z M657,168.7c-1.1-1.7,3.5-1.2,4.1-1.6
	C662.3,168.8,657.6,168.3,657,168.7z M663.8,167.8c-1.1-1.4,5.1-2.3,4.3-0.6L663.8,167.8z M712.2,167.6c0.2-1.6-2.5-3.2-1-4.2
	C712.1,164.2,714.5,167.7,712.2,167.6z M670.6,166.9c-1.1-1.7,3.5-1.2,4.1-1.6C675.9,167,671.2,166.5,670.6,166.9z M677.4,165.9
	c-1.1-1.7,3.5-1.2,4.1-1.6C682.7,166,678,165.5,677.4,165.9z M684.2,165c-1.1-1.4,5.1-2.3,4.3-0.6L684.2,165z M691,164.1
	c-1.1-1.7,3.5-1.2,4.1-1.6C696.3,164.2,691.6,163.7,691,164.1z M697.8,163.1c-1.1-1.7,3.5-1.2,4.1-1.6
	C703.1,163.2,698.4,162.7,697.8,163.1z M708.5,162.7c-1.2-0.6-2.6-0.7-3.9-0.6C703.7,160.1,710.4,160.9,708.5,162.7z M973,358.4
	c-0.3-1.9,2.9-0.7,4.3-1.2C977.9,359.2,974.2,357.9,973,358.4z M970.4,358.4c-1.4-0.3-4.7,0.6-4.2-1.3
	C967.5,357.5,970.8,356.4,970.4,358.4z M979.9,357.9c-0.6-1.9,2.8-1.1,4.1-1.6C984.8,358.2,981.2,357.3,979.9,357.9z M963.5,357.7
	c-1.3-0.5-4.9,0-3.9-1.9C960.8,356.4,964.3,355.8,963.5,357.7z M986.7,356.8c-0.8-1.9,2.8-1.3,4-1.9
	C991.5,356.7,988,356.1,986.7,356.8z M956.8,356.1c-1.2-0.8-4.7-0.8-3.6-2.5C954.3,354.5,957.7,354.4,956.8,356.1z M993.4,355.2
	c-1.4-1.3,4.6-2.9,4.1-1.1L993.4,355.2z M1000,353.4c-1.4-1.3,4.6-2.9,4.1-1.1L1000,353.4z M950.4,353.3c-1-0.9-4.6-1.8-3.1-3.2
	C948.2,351.2,951.5,351.7,950.4,353.3z M1006.7,351.6c-1.4-1.3,4.6-2.9,4.1-1.1L1006.7,351.6z M1013.3,349.8
	c-1.4-1.3,4.6-2.9,4.1-1.1C1017.4,348.7,1013.3,349.8,1013.3,349.8z M944.8,349.3c-0.8-1-4.1-2.8-2.3-3.7
	C943.1,346.9,946.3,348,944.8,349.3z M1019.9,348c-1.4-1.3,4.6-2.9,4.1-1.1L1019.9,348z M1026.5,346.2c-1.4-1.3,4.6-2.9,4.1-1.1
	L1026.5,346.2z M1033.2,344.4c-1.2-1.4,4.5-2.9,4.2-1.1C1036.6,343.5,1034.1,344.2,1033.2,344.4z M940.5,343.7
	c-0.3-1.2-0.6-5.3,1.2-4.1C940.7,340.8,942.4,343.7,940.5,343.7z M1039.8,342.5c-0.9-1.8,2.6-1.5,3.7-2.4
	C1044.6,341.7,1040.9,341.8,1039.8,342.5z M1046.2,340.1c-1.1-1.6,2.5-1.8,3.4-2.8C1050.9,338.8,1047.4,339.2,1046.2,340.1z
	 M942.9,337.6c-1.8-0.4,2.7-4.7,3.1-3C945.8,334.8,943.1,337.4,942.9,337.6z M1052.3,336.8c-1.3-1.4,2.2-2.2,3-3.2
	C1056.8,334.9,1053.4,335.7,1052.3,336.8z M947.8,332.8c-2-0.6,2.2-3.1,2.4-3.7C952.2,329.7,948,332.1,947.8,332.8z M1057.9,332.7
	c-1.6-1.3,1.7-2.4,2.3-3.8C1061.9,330,1058.8,331.5,1057.9,332.7z M952.7,328c-2-0.6,2.2-3.1,2.4-3.7
	C957.1,324.9,952.9,327.3,952.7,328z M1062.7,327.6c-1.7-0.9,1.2-2.7,1.5-4.1C1066.2,324.1,1063.2,326.4,1062.7,327.6z M977.3,325.1
	c-1.3,0.1-6-0.7-3.6-1.6C974.7,324.3,977.7,323.2,977.3,325.1z M979.9,324.9c-0.5-1.9,2.5-1,4-1.9
	C984.7,324.9,980.8,324.4,979.9,324.9z M986.6,323.3c-1.4-1.3,4.6-2.9,4.1-1.1C990.7,322.2,986.6,323.3,986.6,323.3z M957.6,323.2
	c-1.6-2.6,5.4-3.5-1.6-3.8C959,316.7,963.2,319.8,957.6,323.2z M970.6,322.9c-7.1-4.8-0.2-4.5,4.9-5.6c1.2,2.9-10.1,0.8-6.1,3.2
	C970.2,321.5,971.7,321.7,970.6,322.9z M1066.3,321.7c-1.9-0.5,0.6-2.9,0.6-4.3C1069,317.6,1066.6,320.3,1066.3,321.7z M993.3,321.5
	c-1.4-1.3,4.6-2.9,4.1-1.1C997.4,320.4,993.3,321.5,993.3,321.5z M999.9,319.8c-1.4-1.3,4.6-2.9,4.1-1.1
	C1004,318.7,999.9,319.8,999.9,319.8z M953.5,318.9c-1.1-0.6-4.8-0.4-3.9-2.1C950.7,317.6,954.2,317.2,953.5,318.9z M1006.5,318
	c-1.4-1.3,4.6-2.9,4.1-1.1L1006.5,318z M978.2,317.8c-1.3-1.3,4.9-2.5,4.2-0.8L978.2,317.8z M946.9,316.7c-1-0.8-4.7-1.5-3.2-2.9
	C944.7,314.9,948.2,315.1,946.9,316.7z M985,316.5c-1.3-1.3,4.9-2.5,4.2-0.8L985,316.5z M1013.1,316.2c-1.4-1.3,4.6-2.9,4.1-1.1
	C1017.2,315.1,1013.1,316.2,1013.1,316.2z M991.7,315.2c-1.3-1.3,4.9-2.5,4.2-0.8C995.9,314.4,991.7,315.2,991.7,315.2z
	 M1068.5,315.1c-2,0-0.1-3-0.4-4.4C1070.1,310.5,1068.5,313.7,1068.5,315.1z M1019.7,314.4c-1.4-1.3,4.6-2.9,4.1-1.1L1019.7,314.4z
	 M998.4,313.8c-1.3-1.3,4.9-2.5,4.2-0.8C1002.6,313,998.4,313.8,998.4,313.8z M941,313.1c-0.8-1-4.2-2.5-2.5-3.7
	C939.1,310.6,942.5,311.8,941,313.1z M1026.4,312.6c-0.7-1.2,0.3-1.1,1.2-1.4C1032.7,309.5,1029.6,312.3,1026.4,312.6z
	 M1005.1,312.5c-1.3-1.3,4.9-2.5,4.2-0.8L1005.1,312.5z M1011.9,311.1c-1.3-1.3,4.9-2.5,4.2-0.8
	C1016.1,310.3,1011.9,311.1,1011.9,311.1z M1032.9,310.2c-1.1-1.1,1-1.4,0.2-2.3C1029.2,305.7,1037.8,307.3,1032.9,310.2z
	 M1018.6,309.8c-1.3-1.3,4.9-2.5,4.2-0.8L1018.6,309.8z M1025.3,308.5c-0.9-1.5,1.5-1.2,2.2-1.5
	C1032.2,306.6,1027.3,308.5,1025.3,308.5z M1068.2,308.2c0.4-1.4-1.3-4.5,0.7-4.3C1068.8,305.3,1070.2,308.5,1068.2,308.2z
	 M936.1,308.1c-0.6-1.1-3.5-3.5-1.5-4.2C935,305.3,937.9,307.1,936.1,308.1z M932.6,302.1c-0.2-1.2-2.7-4.2-0.6-4.4
	C932.1,299.3,934.5,301.4,932.6,302.1z M1067.4,301.5c0.1-2-2.8-5.6-0.9-6.5C1066.7,296.7,1069.5,300.9,1067.4,301.5z M930.3,295.5
	c-0.1-1.3-1.8-4.6,0.2-4.4C930.3,292.5,932.4,295.4,930.3,295.5z M1064.6,292.9c-0.2-1.5-3-3.6-1.1-4.2
	C1063.9,289.9,1066.6,292.4,1064.6,292.9z M929.2,288.7c0.2-1.3-1-4.8,1-4.2C929.7,285.8,931.1,289,929.2,288.7z M1061.3,287.1
	c-0.4-1.4-3.6-2.9-2-4C1060,284.2,1063.1,286.2,1061.3,287.1z M966.8,286.9c-0.3-1.8,2.5-0.8,4.2-1.4
	C971.8,287.4,967.6,286.6,966.8,286.9z M964.8,286.5c-2.3-0.6,3-3.8,3.5-1.9C966.2,285.5,965.2,286.2,964.8,286.5z M973.6,286
	c-1.3-1.3,4.9-2.6,4.2-0.9L973.6,286z M980.4,284.6c-1.3-1.3,4.9-2.6,4.2-0.9C984.6,283.7,980.4,284.6,980.4,284.6z M970.8,283.9
	c-1.4-1.3,4.6-2.9,4.1-1.1C974.9,282.8,970.8,283.9,970.8,283.9z M987.1,283.2c-1.3-1.3,4.9-2.6,4.2-0.9
	C991.3,282.3,987.1,283.2,987.1,283.2z M977.5,282.1c-1.4-1.3,4.6-2.9,4.1-1.1L977.5,282.1z M1056.8,282.1c-0.7-1.2-4-1.9-2.8-3.3
	C1054.9,279.7,1058.5,280.9,1056.8,282.1z M930.4,281.9c-2,0.2-0.2-3.1-0.1-4.4C932.3,277.7,930.4,280.4,930.4,281.9z M993.8,281.8
	c-1.3-1.3,4.9-2.6,4.2-0.9L993.8,281.8z M1000.5,280.4c-1.3-1.3,4.9-2.6,4.2-0.9L1000.5,280.4z M984.1,280.3
	c-1.4-1.3,4.6-2.9,4.1-1.1C988.2,279.2,984.1,280.3,984.1,280.3z M1007.2,279c-1.3-1.3,4.9-2.6,4.2-0.9L1007.2,279z M990.7,278.6
	c-1.4-1.3,4.6-2.9,4.1-1.1L990.7,278.6z M1051.3,278.2c-0.9-0.9-4.5-1-3.6-2.6C1048.8,276.3,1052.4,276.6,1051.3,278.2z
	 M1013.9,277.6c-1.3-1.3,4.9-2.6,4.2-0.9C1018.1,276.7,1013.9,277.6,1013.9,277.6z M997.3,276.8c-1.4-1.3,4.6-2.9,4.1-1.1
	C1001.4,275.7,997.3,276.8,997.3,276.8z M1020.6,276.1c-1.3-1.3,4.9-2.6,4.2-0.9C1024.8,275.2,1020.6,276.1,1020.6,276.1z
	 M1045,275.7c-1.1-0.8-4.7-0.1-3.9-1.9C1042.5,274.2,1046,273.8,1045,275.7z M932.2,275.4c-2-0.5,0.6-3.1,1-4.3
	C935.1,271.7,932.3,273.9,932.2,275.4z M1004,275c-1.4-1.3,4.6-2.9,4.1-1.1L1004,275z M1027.3,274.9c0.4-2.2,4.8-1.3,7-2.7
	C1035.1,274.6,1029.5,274.3,1027.3,274.9z M1038.3,274.6c-1.3-0.5-4.5,0.7-4.2-1.2C1035.5,273.7,1038.9,272.6,1038.3,274.6z
	 M1010.6,273.2c-1.1-1.7,2.8-1.6,3.8-2.1C1015.3,272.8,1011.7,272.5,1010.6,273.2z M1027.6,273.1c-1.1-1.2-4.3-0.9-3.6-2.7
	C1025.2,270.8,1028.8,271.3,1027.6,273.1z M1017.2,271.6c-1-1.7,5-2.1,4.2-0.4C1020.1,271.2,1018.9,271.2,1017.2,271.6z
	 M1036.8,271.3c-2-0.5,1.9-3.3,2-3.9C1041,267.8,1036.9,270.6,1036.8,271.3z M935.5,269.3c-1.9-0.3,0.7-2.2,1.8-3.9
	C938.9,266.5,936,268,935.5,269.3z M1041.2,266.1c-2.1-0.4,1.9-3.2,2-3.9C1045.4,262.6,1041.3,265.4,1041.2,266.1z M939.8,264.4
	c-1.7-1.2,1.7-2.4,2.6-3.5C943.9,262.2,940.5,263.1,939.8,264.4z M1045.7,260.8c-2.1-0.4,1.9-3.2,2-3.9
	C1049.9,257.3,1045.8,260.1,1045.7,260.8z M945.1,260.2c-1.5-1.4,2.1-2.1,3.1-3C949.5,258.7,946.1,259,945.1,260.2z M951,256.8
	c-1.1-1.6,2.4-1.8,3.6-2.6C955.7,255.8,952,255.9,951,256.8z M1050.1,255.6c-0.3-0.3-1.2-0.6-0.4-1
	C1051.7,249.7,1053.1,252.5,1050.1,255.6z M957.3,254.2c-0.9-1.7,2.6-1.5,3.8-2.2C962.1,253.8,958.4,253.3,957.3,254.2z
	 M963.8,252.2c-1.4-1.3,4.6-2.9,4.1-1.1C967.9,251.1,963.8,252.2,963.8,252.2z M970.4,250.4c-1.4-1.3,4.6-2.9,4.1-1.1
	C974.5,249.3,970.4,250.4,970.4,250.4z M1051.1,249c0.1-1.6-2.7-3.1-1.2-4.1C1050.8,245.7,1053.4,248.9,1051.1,249z M977.1,248.6
	c-1.4-1.3,4.6-2.9,4.1-1.1C981.2,247.5,977.1,248.6,977.1,248.6z M983.7,246.8c-1.4-1.3,4.6-2.9,4.1-1.1L983.7,246.8z M990.3,245
	c-1.4-1.3,4.6-2.9,4.1-1.1C994.4,243.9,990.3,245,990.3,245z M1047.1,244.2c-0.9-1.1-4.4-1.4-3.3-3
	C1044.8,242,1048.4,242.7,1047.1,244.2z M996.9,243.2c-1.4-1.3,4.6-2.9,4.1-1.1C1001,242.1,996.9,243.2,996.9,243.2z M1003.5,241.4
	c-1-1.9,2.7-1.4,3.9-2.1C1008.2,241.1,1004.8,240.6,1003.5,241.4z M1041.1,241c-1.1-0.9-4.6-0.5-3.7-2.3
	C1038.6,239.3,1042.3,239.3,1041.1,241z M1010.2,239.8c-0.8-1.9,2.9-1.3,4-1.8C1015,239.8,1011.5,239.1,1010.2,239.8z M1034.7,239.1
	c-1.2-0.7-4.7,0.2-4.1-1.7C1032,237.9,1035.5,237.2,1034.7,239.1z M1016.9,238.7c-0.5-2,3-1,4.2-1.4
	C1021.7,239.2,1018.2,238.1,1016.9,238.7z M1027.9,238.2c-1.3-0.5-4.6,0.9-4.2-1.1C1025.1,237.4,1028.5,236.2,1027.9,238.2z
	 M797.4,392.1c-1.2-0.1-5.2-0.8-3.6-2.4C794.8,391,797.9,390.3,797.4,392.1z M800.1,391.8c-1.3-1.3,4.9-2.6,4.2-0.9L800.1,391.8z
	 M806.8,390.4c-1.3-1.3,4.9-2.6,4.2-0.9L806.8,390.4z M813.5,388.9c-1.3-1.3,4.9-2.6,4.2-0.9L813.5,388.9z M791.3,388.5
	c-0.7-1.1-1-2.9-1.3-4.2C791.4,383.4,792.6,388.4,791.3,388.5z M820.2,387.5c-1.3-1.3,4.9-2.6,4.2-0.9L820.2,387.5z M826.9,386
	c-1.3-1.3,4.9-2.6,4.2-0.9C831.1,385.1,826.9,386,826.9,386z M833.6,384.6c-1.3-1.3,4.9-2.6,4.2-0.9L833.6,384.6z M840.3,383.2
	c-1.3-1.3,4.9-2.6,4.2-0.9C844.5,382.3,840.3,383.2,840.3,383.2z M789.5,381.7l-0.9-4.2C789.9,376.2,791.3,382.3,789.5,381.7z
	 M847,381.7c-1.3-1.3,4.9-2.6,4.2-0.9C851.2,380.8,847,381.7,847,381.7z M853.7,380.3c-1.3-1.3,4.9-2.6,4.2-0.9L853.7,380.3z
	 M860.4,378.8c-1.3-1.3,4.9-2.6,4.2-0.9C864.6,377.9,860.4,378.8,860.4,378.8z M867.1,377.4c-1.3-1.3,4.9-2.6,4.2-0.9L867.1,377.4z
	 M873.8,376c-1-1.5,1.7-1.2,2.4-1.6C880.6,373.7,875.6,376,873.8,376z M788,375l-0.9-4.2C788.4,369.5,789.8,375.6,788,375z
	 M880.5,374.4c-1-1.8,2.7-1.5,3.8-2.2C885.3,374,881.8,373.8,880.5,374.4z M887.1,372.4c-0.9-1.7,2.7-1.6,3.7-2.4
	C892,371.6,888.3,371.6,887.1,372.4z M893.5,369.8c-1.1-1.6,2.5-1.8,3.4-2.8C898.2,368.6,894.7,368.9,893.5,369.8z M786.6,368.3
	l-0.9-4.2C787,362.8,788.4,368.9,786.6,368.3z M899.6,366.6c-1.3-1.5,2.1-2.1,3.1-3.2C904.2,364.8,900.6,365.6,899.6,366.6z
	 M905.3,362.7c-1.4-1.3,1.9-2.3,2.6-3.6C909.6,360.2,906.2,361.6,905.3,362.7z M785.1,361.6l-0.9-4.2
	C785.5,356.1,786.9,362.2,785.1,361.6z M910.5,358.1c-1.6-1.1,1.5-2.6,2.1-3.9C914.5,355.1,911.2,356.8,910.5,358.1z M783.7,354.9
	l-0.9-4.2C784.1,349.4,785.5,355.5,783.7,354.9z M914.9,352.7c-1.8-0.9,1.2-2.9,1.5-4.2C918.4,349.1,915.3,351.4,914.9,352.7z
	 M821.7,352.2c-1.3-1.3,4.9-2.6,4.2-0.9C825.9,351.3,821.7,352.2,821.7,352.2z M828.4,350.8c-1.3-1.3,4.9-2.6,4.2-0.9
	C832.6,349.9,828.4,350.8,828.4,350.8z M820.3,349.6l-0.9-4.2C820.7,344.1,822.1,350.2,820.3,349.6z M835.1,349.4
	c-1.3-1.3,4.9-2.6,4.2-0.9L835.1,349.4z M782.3,348.2l-0.9-4.2C782.7,342.7,784.1,348.8,782.3,348.2z M841.8,347.9
	c-1.3-1.3,4.9-2.6,4.2-0.9L841.8,347.9z M918.4,346.8c-1.9-0.5,0.7-2.9,0.8-4.3C921.1,342.9,918.9,345.4,918.4,346.8z M848.5,346.5
	c-1.3-1.3,4.9-2.6,4.2-0.9L848.5,346.5z M855.2,345c-1.3-1.3,4.9-2.6,4.2-0.9L855.2,345z M861.9,343.6c-1.3-1.3,4.9-2.6,4.2-0.9
	C866.1,342.7,861.9,343.6,861.9,343.6z M818.9,342.9l-0.9-4.2C819.3,337.4,820.7,343.5,818.9,342.9z M868.6,342.2
	c-0.1-0.6-0.4-1.2,0.5-1.1C874.2,339.3,872.8,341.9,868.6,342.2z M780.8,341.5l-0.9-4.2C781.2,336,782.6,342.1,780.8,341.5z
	 M921,340.3c-2-0.2,0.2-2.9,0.1-4.4C923.2,335.9,921.1,339.1,921,340.3z M875.3,340.3c-1.1-1.6,2.6-1.7,3.4-2.7
	C880,339.2,876.5,339.4,875.3,340.3z M881.4,336.9c-1.3-1.4,2.2-2.8,2.6-4.4C886.2,333.4,882.4,335.7,881.4,336.9z M817.4,336.2
	l-0.9-4.2C817.8,330.7,819.2,336.8,817.4,336.2z M779.4,334.8l-0.9-4.2C779.8,329.3,781.2,335.4,779.4,334.8z M922.6,333.6
	c-2,0-0.2-3-0.5-4.4C924.1,329,922.5,332.2,922.6,333.6z M886,330.6c-1.8-0.3,0.2-2.8-0.1-4.4C888,326,886.2,329.4,886,330.6z
	 M816,329.5l-0.9-4.2C816.4,324,817.8,330.1,816,329.5z M777.9,328.1l-0.9-4.2C778.3,322.6,779.7,328.7,777.9,328.1z M923.2,326.7
	c-2,0.3-0.6-2.9-1.1-4.2C924.1,322.2,922.9,325.3,923.2,326.7z M885.9,323.7c0.3-1.2-1.5-4.4,0.5-4.4
	C886.4,320.8,888.1,323.9,885.9,323.7z M814.6,322.8l-0.9-4.2C815,317.3,816.4,323.4,814.6,322.8z M776.5,321.4l-0.9-4.2
	C776.9,315.9,778.3,322,776.5,321.4z M922,319.9c0.3-1.4-1.5-4.4,0.5-4.4C922.4,316.8,924,320,922,319.9z M884.8,317.1
	c0-1.6-2.4-3.9-0.6-4.3C884.5,313.8,886.8,316.9,884.8,317.1z M813.1,316.1c-1.3-1.4,4.7-2.7,4.1-1
	C816.4,315.2,813.8,315.9,813.1,316.1z M775.1,314.7l-0.9-4.2C775.5,309.2,776.9,315.3,775.1,314.7z M819.7,314.6
	c-1.3-1.3,4.9-2.6,4.2-0.9L819.7,314.6z M826.5,313.2c-1.3-1.3,4.9-2.6,4.2-0.9C830.7,312.3,826.5,313.2,826.5,313.2z M921,313.1
	c0.2-1.8-2.4-5.7-0.3-6.1C920.8,308.7,923.2,312.7,921,313.1z M833.2,311.7c-1.3-1.3,4.9-2.6,4.2-0.9
	C837.4,310.8,833.2,311.7,833.2,311.7z M882.1,310.9c-0.5-1.5-3.6-2.6-2.2-3.9C880.7,307.9,884,309.9,882.1,310.9z M839.9,310.3
	c-1.3-1.3,4.9-2.6,4.2-0.9C844.1,309.4,839.9,310.3,839.9,310.3z M846.6,308.8c-1.3-1.3,4.9-2.6,4.2-0.9L846.6,308.8z M773.6,308
	l-0.9-4.2C774,302.5,775.4,308.6,773.6,308z M853.3,307.4c-1.3-1.3,4.9-2.6,4.2-0.9L853.3,307.4z M877.3,306.5c-1-1-4.4-0.6-3.7-2.4
	C874.9,304.6,878.7,304.8,877.3,306.5z M860,306c-0.8-1.8,2.9-1.3,4.1-1.8C864.7,306,861.3,305.3,860,306z M918.9,304.9
	c0-1.5-2.4-3.9-0.5-4.4C918.5,301.8,921,304.7,918.9,304.9z M866.7,304.9c-0.6-2,3.1-0.8,4.3-1C871.2,305.8,868.3,304.2,866.7,304.9
	z M772.2,301.2l-0.9-4.2C772.6,295.7,774,301.8,772.2,301.2z M916.5,298.5c-0.2-1.4-2.9-3.7-1-4.3
	C915.9,295.4,918.4,298,916.5,298.5z M772.1,294.5c-2.2,0.1,0.1-3.3,0.8-4.2C774.6,291.2,771.8,292.7,772.1,294.5z M913.3,292.5
	c-0.3-1.4-3.3-3.2-1.6-4.1C912.2,289.5,915.1,291.7,913.3,292.5z M775.5,289.4c-1.5-1.7,2.6-1.6,3.7-2.1
	C780.1,289.2,776.6,288.4,775.5,289.4z M782,287.8c-1.3-1.3,4.9-2.6,4.2-0.9L782,287.8z M909.4,287c-0.6-1.4-3.7-2.7-2.1-3.8
	C908,284.3,911.3,286.1,909.4,287z M788.8,286.3c-1.3-1.3,4.9-2.6,4.2-0.9L788.8,286.3z M795.5,284.9c-1.3-1.3,4.9-2.6,4.2-0.9
	L795.5,284.9z M802.2,283.4c-1.3-1.3,4.9-2.6,4.2-0.9L802.2,283.4z M904.7,282.1c-0.8-1.1-4.1-2.2-2.7-3.5
	C902.9,279.6,906.4,280.8,904.7,282.1z M808.9,282c-1.3-1.3,4.9-2.6,4.2-0.9C813.1,281.1,808.9,282,808.9,282z M815.6,280.6
	c-1.3-1.3,4.9-2.6,4.2-0.9L815.6,280.6z M822.3,279.1c-1.3-1.3,4.9-2.6,4.2-0.9L822.3,279.1z M899.3,278c-0.9-1.1-4.5-1.5-3.2-3
	C897.1,275.9,900.6,276.5,899.3,278z M829,277.7c-1.3-1.3,4.9-2.6,4.2-0.9C833.2,276.8,829,277.7,829,277.7z M835.7,276.2
	c-1.3-1.3,4.9-2.6,4.2-0.9C839.9,275.3,835.7,276.2,835.7,276.2z M842.4,274.8c-1.3-1.3,4.9-2.6,4.2-0.9
	C846.6,273.9,842.4,274.8,842.4,274.8z M893.4,274.8c-1.1-0.9-4.5-0.8-3.6-2.5C891,273,894.5,273.1,893.4,274.8z M849.1,273.4
	c-1.3-1.3,4.9-2.6,4.2-0.9L849.1,273.4z M887,272.4c-1.1-0.8-4.7-0.1-3.9-2C884.3,271,888,270.5,887,272.4z M855.8,271.9
	c-0.8-1.9,2.9-1.2,4-1.7C860.4,272,857.2,271.3,855.8,271.9z M880.4,271c-1.3-0.6-4.7,0.4-4.1-1.5
	C877.6,269.9,881.2,269.1,880.4,271z M862.6,270.9c-0.6-1.9,2.9-1,4.2-1.4C867.4,271.4,863.9,270.3,862.6,270.9z M873.6,270.4
	c-1.3-0.4-4.6,0.9-4.3-1C870.8,269.7,874,268.4,873.6,270.4z M634,429.5c-1-0.1-3.4,0-2.3-1.4C633.4,428.4,638.4,429,634,429.5z
	 M638.3,428.7c-1.3-1.3,4.9-2.8,4.2-1L638.3,428.7z M629,427.6c-0.9-0.9-3.6-4-1.3-4.1C627.6,425.1,630.4,426.4,629,427.6z
	 M645,427.2c-1.3-1.3,4.9-2.8,4.2-1L645,427.2z M651.7,425.6c-1.3-1.3,4.9-2.8,4.2-1L651.7,425.6z M658.4,424.1
	c-0.7-1.8,2.5-1.1,3.4-2.6C663.4,423,659.6,423.7,658.4,424.1z M627.6,421.1c-2,0.6,0-5.2,1.2-4
	C628.5,417.9,627.7,420.2,627.6,421.1z M664.2,420.1c-1.8-0.3,0.5-3.2,0.5-4.4C666.8,415.6,664.5,419.1,664.2,420.1z M629.7,414.7
	c-2,0.3,0.6-3.7,0.5-4.3C632.2,410.1,629.6,414,629.7,414.7z M666.5,413.5c-1.8,0.5,0.1-5.5,1.3-4.1L666.5,413.5z M632,408.2
	c-2,0.3,0.6-3.7,0.5-4.3C634.5,403.6,631.9,407.5,632,408.2z M668.6,407c-1.9,0.4,0.1-4.5,1-4.3C670,403.4,668.7,406,668.6,407z
	 M747.5,403.1c-0.5-1.7,3-1.2,4.1-1.8C752.5,403,748.6,402.8,747.5,403.1z M672.4,403.1c-1.3-1.3,4.9-2.8,4.2-1
	C676.6,402.1,672.4,403.1,672.4,403.1z M744.8,402.6c-1.1-0.5-4.5-2.2-2.8-3.4C742.6,400.7,745.8,401.1,744.8,402.6z M634.2,401.7
	c-2,0.3,0.6-3.7,0.5-4.3C636.7,397.1,634.1,401,634.2,401.7z M754.3,401.7c-1.3-1.3,4.9-2.8,4.2-1L754.3,401.7z M679.1,401.5
	c-1.3-1.3,4.9-2.8,4.2-1L679.1,401.5z M761,400.2c-1.3-1.3,4.9-2.8,4.2-1L761,400.2z M685.7,400c-1.3-1.3,4.9-2.8,4.2-1L685.7,400z
	 M767.6,398.6c-1.3-1.3,4.9-2.8,4.2-1L767.6,398.6z M692.4,398.4c-1.3-1.3,4.9-2.8,4.2-1C696.6,397.4,692.4,398.4,692.4,398.4z
	 M739.4,398.1l-3-3.1C736.8,393.2,741.2,397.7,739.4,398.1z M699.1,396.9c-1.3-1.3,4.9-2.8,4.2-1L699.1,396.9z M774.4,396.8
	c-1-1.5,2.1-1.9,2.4-3.6C778.9,393.9,775.5,396.1,774.4,396.8z M705.8,395.3c-1.3-1.3,4.9-2.8,4.2-1L705.8,395.3z M636.5,395.2
	c-2,0.3,0.6-3.7,0.5-4.3C639,390.6,636.4,394.5,636.5,395.2z M712.5,393.7c-1.3-1.3,4.9-2.8,4.2-1L712.5,393.7z M734.7,393.1l-3-3.1
	C732.1,388.2,736.5,392.7,734.7,393.1z M719.1,392.2c-1.3-1.3,4.9-2.8,4.2-1L719.1,392.2z M778.5,391.1c-1.8,0.2-0.5-2.8-1.6-3.9
	C778.7,385.8,778.8,389.9,778.5,391.1z M725.8,390.6c-1.3-1.3,4.9-2.8,4.2-1L725.8,390.6z M638.8,388.8c-2,0.3,0.6-3.7,0.5-4.3
	C641.3,384.2,638.7,388.1,638.8,388.8z M775.3,385.2c-0.2-0.6-4.4-3-2.4-3.7C773.1,382.1,777.3,384.5,775.3,385.2z M641,382.3
	c-2,0.3,0.6-3.7,0.5-4.3C643.5,377.7,640.9,381.6,641,382.3z M770.4,380.4c-0.2-0.6-4.4-3-2.4-3.7
	C768.2,377.3,772.4,379.7,770.4,380.4z M643.3,375.8c-2,0.3,0.6-3.7,0.5-4.3C645.8,371.2,643.2,375.1,643.3,375.8z M765.5,375.6
	c-0.2-0.6-4.4-3-2.4-3.7C763.3,372.5,767.5,374.9,765.5,375.6z M760.6,370.8c-0.2-0.6-4.4-3-2.4-3.7
	C758.4,367.7,762.6,370.1,760.6,370.8z M645.6,369.3c-2,0.3,0.6-3.7,0.5-4.3C648.1,364.7,645.5,368.6,645.6,369.3z M680.4,368.6
	c0.3-0.3,0.3-1.9,1-1.2C687.9,365.6,683.7,368.5,680.4,368.6z M687.4,366.9c-1.3-1.3,4.9-2.8,4.2-1
	C691.6,365.9,687.4,366.9,687.4,366.9z M755.7,366c-0.2-0.6-4.4-3-2.4-3.7C753.5,362.9,757.7,365.3,755.7,366z M694.1,365.4
	c-1.3-1.3,4.9-2.8,4.2-1L694.1,365.4z M682.7,365.1c-1.8,0.4,0.2-5.4,1.3-4.1L682.7,365.1z M700.7,363.8c-1.1-1.9,3.5-1.2,3.8-2.5
	C708.3,363.5,701.5,363,700.7,363.8z M647.8,362.9c-2,0.3,0.6-3.7,0.5-4.3C650.3,358.3,647.7,362.2,647.8,362.9z M750.8,361.2
	c-0.2-0.6-4.4-3-2.4-3.7C748.6,358.1,752.8,360.5,750.8,361.2z M702,360.3c-0.2-0.6-4.4-3-2.4-3.7C699.8,357.2,704,359.6,702,360.3z
	 M684.9,358.6c-2,0.3,0.6-3.7,0.5-4.3C687.4,354,684.8,357.9,684.9,358.6z M650.1,356.4c-2,0.3,0.6-3.7,0.5-4.3
	C652.6,351.8,650,355.7,650.1,356.4z M745.9,356.3c-0.2-0.6-4.4-3-2.4-3.7C743.7,353.2,747.9,355.6,745.9,356.3z M697.1,355.5
	c-0.2-0.6-4.4-3-2.4-3.7C694.9,352.4,699.1,354.8,697.1,355.5z M687.2,352.1c-2,0.3,0.6-3.7,0.5-4.3
	C689.7,347.5,687.1,351.4,687.2,352.1z M741,351.5c-0.2-0.6-4.4-3-2.4-3.7C738.8,348.4,743,350.8,741,351.5z M692.2,350.7
	c-0.2-0.6-4.4-3-2.4-3.7C690,347.6,694.2,350,692.2,350.7z M652.4,349.9c-2,0.3,0.6-3.7,0.5-4.3
	C654.9,345.3,652.3,349.2,652.4,349.9z M736.1,346.7c-0.2-0.6-4.4-3-2.4-3.7C733.9,343.6,738.1,346,736.1,346.7z M654.6,343.4
	c-2,0.3,0.6-3.7,0.5-4.3C657.1,338.8,654.5,342.7,654.6,343.4z M731.2,341.9c-0.2-0.6-4.4-3-2.4-3.7
	C729,338.8,733.2,341.2,731.2,341.9z M726.4,337.1c-0.2-0.6-4.4-3-2.4-3.7C724.2,334,728.4,336.4,726.4,337.1z M656.9,337
	c-2,0.3,0.6-3.7,0.5-4.3C659.4,332.4,656.8,336.3,656.9,337z M721.5,332.3c-0.2-0.6-4.4-3-2.4-3.7
	C719.3,329.2,723.5,331.6,721.5,332.3z M659.2,330.5c-2,0.3,0.6-3.7,0.5-4.3C661.7,325.9,659.1,329.8,659.2,330.5z M716.6,327.5
	c-0.2-0.6-4.4-3-2.4-3.7C714.4,324.4,718.6,326.8,716.6,327.5z M661.4,324c-2,0.3,0.6-3.7,0.5-4.3
	C663.9,319.4,661.3,323.3,661.4,324z M711.7,322.7c-0.2-0.6-4.4-3-2.4-3.7C709.5,319.6,713.7,322,711.7,322.7z M706.8,317.9
	c-0.2-0.6-4.4-3-2.4-3.7C704.6,314.8,708.8,317.2,706.8,317.9z M663.7,317.5c-2.1-0.4,0.9-3.2,1.8-3.9
	C666.9,314.8,663.7,315.9,663.7,317.5z M668.2,313.4c-1.3-1.3,4.9-2.8,4.2-1L668.2,313.4z M701.9,313.1c-0.2-0.6-4.4-3-2.4-3.7
	C699.7,310,703.9,312.4,701.9,313.1z M674.9,311.9c-1.3-1.3,4.9-2.8,4.2-1C679.1,310.9,674.9,311.9,674.9,311.9z M681.6,310.3
	c-1.3-1.3,4.9-2.8,4.2-1L681.6,310.3z M698.3,309.5c-0.9-1.4-4-1.1-3.3-2.8C696.2,307,700.1,308.2,698.3,309.5z M688.3,308.8
	c-1.3-1.3,4.9-2.8,4.2-1C692.3,307.7,688.5,308.8,688.3,308.8z M499.7,454.2c-0.9-1.3,4.7-2.5,4.2-0.8
	C503.2,453.5,500.4,454.2,499.7,454.2z M497,453.9c-1.2-0.4-4.9-2.1-2.9-3.2C494.7,452.3,497.9,452.2,497,453.9z M506.5,452.9
	c-1.3-1.3,4.9-2.5,4.2-0.8L506.5,452.9z M513.2,451.6c-1.3-1.3,4.9-2.5,4.2-0.8C517.4,450.8,513.2,451.6,513.2,451.6z M519.9,450.3
	c-1.3-1.3,4.9-2.5,4.2-0.8C524.1,449.5,519.9,450.3,519.9,450.3z M526.7,448.9c-1.3-1.3,4.9-2.5,4.2-0.8L526.7,448.9z M492,448.9
	c0-0.8-1.9-4.8,0.1-4.4C492,445.5,493.9,449.1,492,448.9z M533.4,447.6c-1.3-1.3,4.9-2.5,4.2-0.8
	C537.6,446.8,533.4,447.6,533.4,447.6z M540.1,446.3c-1.3-1.3,4.9-2.5,4.2-0.8L540.1,446.3z M546.9,445c-1.3-1.3,4.9-2.5,4.2-0.8
	C551.1,444.2,546.9,445,546.9,445z M553.6,443.6c-1.3-1.3,4.9-2.5,4.2-0.8C557.8,442.8,553.6,443.6,553.6,443.6z M560.3,442.3
	c-1.3-1.3,4.9-2.5,4.2-0.8L560.3,442.3z M490.6,442.1l-0.8-4.2C491.2,436.6,492.3,442.7,490.6,442.1z M567.1,441
	c-1.3-1.3,4.9-2.5,4.2-0.8L567.1,441z M573.8,439.7c-1.3-1.3,4.9-2.5,4.2-0.8C578,438.9,573.8,439.7,573.8,439.7z M580.5,438.4
	c-1.3-1.3,4.9-2.5,4.2-0.8L580.5,438.4z M587.3,437c-1.3-1.3,4.9-2.5,4.2-0.8L587.3,437z M594,435.7c-1.3-1.3,4.9-2.5,4.2-0.8
	C598.2,434.9,594,435.7,594,435.7z M489.3,435.3l-0.8-4.2C489.9,429.8,491,435.9,489.3,435.3z M600.7,434.4
	c-1.3-1.3,4.9-2.5,4.2-0.8L600.7,434.4z M607.5,433.1c-0.7-1.8,2.6-1.2,3.5-2.6C612.6,432,608.7,432.7,607.5,433.1z M613.3,429.3
	c-1.7-0.6,0.5-2.8-0.1-4.3C615.3,424.4,614,428,613.3,429.3z M488,428.6l-0.8-4.2C488.6,423.1,489.7,429.2,488,428.6z M612.8,422.4
	l-0.8-4.2C613.4,416.9,614.5,423,612.8,422.4z M486.7,421.9l-0.8-4.2C487.3,416.4,488.4,422.5,486.7,421.9z M522.4,416
	c-0.9-1.7,0.3-4.3,0.8-1.1C526.9,414.1,524.6,416.3,522.4,416z M611.5,415.7l-0.8-4.2C612.1,410.2,613.2,416.3,611.5,415.7z
	 M485.3,415.2l-0.8-4.2C485.9,409.7,487,415.8,485.3,415.2z M527.7,414.9c-1.3-1.3,4.9-2.5,4.2-0.8L527.7,414.9z M534.4,413.6
	c-1.3-1.3,4.9-2.5,4.2-0.8C538.6,412.8,534.4,413.6,534.4,413.6z M523.5,412.4c-1.3-1.3,4.9-2.5,4.2-0.8L523.5,412.4z M541.1,412.3
	c-1.3-1.3,4.9-2.5,4.2-0.8L541.1,412.3z M530.3,411.1c-1.3-1.3,4.9-2.5,4.2-0.8C534.5,410.3,530.3,411.1,530.3,411.1z M547.9,411
	c-1.3-1.3,4.9-2.5,4.2-0.8C552.1,410.2,547.9,411,547.9,411z M537,409.8c-1.3-1.3,4.9-2.5,4.2-0.8L537,409.8z M554.6,409.6
	c-1.3-1.3,4.9-2.5,4.2-0.8C558.8,408.8,554.6,409.6,554.6,409.6z M610.2,409c0.3-2.5-2.8-6.2-1.9-7.6
	C609.8,402.6,612.5,408.6,610.2,409z M543.7,408.5c-1.3-1.3,4.9-2.5,4.2-0.8L543.7,408.5z M484,408.4l-0.8-4.2
	C484.6,402.9,485.7,409,484,408.4z M561.3,408.3c-1.3-1.3,4.9-2.5,4.2-0.8L561.3,408.3z M550.5,407.1c-1.3-1.3,4.9-2.5,4.2-0.8
	C554.7,406.3,550.5,407.1,550.5,407.1z M568.1,407c-1.3-1.3,4.9-2.5,4.2-0.8L568.1,407z M557.2,405.8c-1.3-1.3,4.9-2.5,4.2-0.8
	L557.2,405.8z M574.8,405.7c-1.3-1.3,4.9-2.5,4.2-0.8C579,404.9,574.8,405.7,574.8,405.7z M563.9,404.5c-1.3-1.3,4.9-2.5,4.2-0.8
	C568.1,403.7,563.9,404.5,563.9,404.5z M581.5,404.3c-1.3-1.3,4.9-2.5,4.2-0.8L581.5,404.3z M570.7,403.2c-1.3-1.3,4.9-2.5,4.2-0.8
	C574.9,402.4,570.7,403.2,570.7,403.2z M588.3,403c-1.3-1.3,4.9-2.5,4.2-0.8L588.3,403z M577.4,401.8c-1.3-1.3,4.9-2.5,4.2-0.8
	C581.6,401,577.4,401.8,577.4,401.8z M595,401.7c-1.3-1.3,4.9-2.5,4.2-0.8C599.2,400.9,595,401.7,595,401.7z M482.7,401.7l-0.8-4.2
	C483.3,396.2,484.4,402.3,482.7,401.7z M605.6,400.7c-0.8-0.3-1.6-0.5-2.5-0.5c-2,0.5-2.2-1.3-0.1-1
	C604.1,399.3,606.6,399.2,605.6,400.7z M584.1,400.5c-1.3-1.3,4.9-2.5,4.2-0.8L584.1,400.5z M590.9,399.2c-0.7-1.8,2.6-1.2,3.5-2.5
	C596,398.2,592.1,398.9,590.9,399.2z M596.8,395.4c-1.8-0.6,0.6-2.8,0-4.4C598.9,390.4,597.4,394.5,596.8,395.4z M481.4,395
	l-0.8-4.2C482,389.5,483.1,395.6,481.4,395z M596.4,388.6l-0.8-4.2C597,383.1,598.1,389.2,596.4,388.6z M480,388.2l-0.8-4.2
	C480.6,382.7,481.7,388.8,480,388.2z M595,381.9l-0.8-4.2C595.6,376.4,596.7,382.5,595,381.9z M478.7,381.5l-0.8-4.2
	C479.3,376,480.4,382.1,478.7,381.5z M515.5,380.7c-0.8-1.3,0.3-3.8,0.8-1.2C520.5,378.5,517.9,380.8,515.5,380.7z M521.1,379.7
	c-1.3-1.3,4.9-2.5,4.2-0.8C525.3,378.9,521.1,379.7,521.1,379.7z M527.8,378.3c-1.3-1.3,4.9-2.5,4.2-0.8L527.8,378.3z M516.2,377.2
	c-1.3-1.3,4.9-2.5,4.2-0.8C520.4,376.4,516.2,377.2,516.2,377.2z M534.5,377c-1.3-1.3,4.9-2.5,4.2-0.8L534.5,377z M522.9,375.8
	c-1.3-1.3,4.9-2.5,4.2-0.8C527.1,375,522.9,375.8,522.9,375.8z M541.3,375.7c-1.3-1.3,4.9-2.5,4.2-0.8
	C545.5,374.9,541.3,375.7,541.3,375.7z M593.7,375.2c-0.2-0.7-0.6-3.5-0.9-4.1C594.2,369.5,595.3,375.6,593.7,375.2z M477.4,374.8
	l-0.8-4.2C478,369.3,479.1,375.4,477.4,374.8z M529.6,374.5c-1.3-1.3,4.9-2.5,4.2-0.8L529.6,374.5z M548,374.4
	c-1.3-1.3,4.9-2.5,4.2-0.8L548,374.4z M536.3,373.2c-1.3-1.3,4.9-2.5,4.2-0.8C540.5,372.4,536.3,373.2,536.3,373.2z M554.7,373
	c-1.3-1.3,4.9-2.5,4.2-0.8L554.7,373z M543.1,371.9c-1.3-1.3,4.9-2.5,4.2-0.8L543.1,371.9z M561.5,371.7c-1.3-1.3,4.9-2.5,4.2-0.8
	C565.7,370.9,561.5,371.7,561.5,371.7z M549.8,370.6c-1.3-1.3,4.9-2.5,4.2-0.8C554,369.8,549.8,370.6,549.8,370.6z M568.2,370.4
	c-1.3-1.3,4.9-2.5,4.2-0.8L568.2,370.4z M556.5,369.2c-1.3-1.3,4.9-2.5,4.2-0.8C560.7,368.4,556.5,369.2,556.5,369.2z M574.9,369.1
	c-1.3-1.3,4.9-2.5,4.2-0.8C579.1,368.3,574.9,369.1,574.9,369.1z M591.6,369.1c-0.7-1.5-3.9-1.3-3.2-3
	C589.6,366.5,593.4,367.8,591.6,369.1z M476.1,368l-0.8-4.2C476.7,362.5,477.8,368.6,476.1,368z M563.3,367.9
	c-1.3-1.3,4.9-2.5,4.2-0.8L563.3,367.9z M581.7,367.8c-1.2-1.7,3.4-1.4,4-1.9C586.7,367.5,582.5,367.3,581.7,367.8z M570,366.6
	c-1.3-1.3,4.9-2.5,4.2-0.8C574.2,365.8,570,366.6,570,366.6z M576.7,365.3c-1.3-1.3,4.9-2.5,4.2-0.8L576.7,365.3z M583.5,363.9
	c-1.3-1.3,4.9-2.5,4.2-0.8L583.5,363.9z M590.2,362.6c-1.2-1.4,4.7-2.5,4.2-0.8C594.4,361.8,590.2,362.6,590.2,362.6z M474.8,361.3
	c-0.7-1.3-0.9-6.9,0.4-3.1C475.1,358.9,476.7,361.6,474.8,361.3z M596.9,360.7c-1.1-1.3,1.8-2.2,2-3.8
	C601,357.4,597.9,360,596.9,360.7z M475.4,354.6c-2.1-0.5,0.9-3.3,1.9-4C478.6,351.8,475.5,353.1,475.4,354.6z M599.4,354.6
	c0.1-0.9-0.5-3.2-0.6-4.1C600.3,349.4,601.3,355.2,599.4,354.6z M480,350.6c-1.2-1.7,3.3-1.4,4-1.9
	C485.3,350.4,480.6,350.1,480,350.6z M486.7,349.3c-1.3-1.3,4.9-2.5,4.2-0.8C490.9,348.5,486.7,349.3,486.7,349.3z M493.5,347.9
	c-1.3-1.3,4.9-2.5,4.2-0.8L493.5,347.9z M598.2,347.9l-0.8-4.2C598.8,342.4,599.9,348.5,598.2,347.9z M500.2,346.6
	c-1.3-1.3,4.9-2.5,4.2-0.8C504.4,345.8,500.2,346.6,500.2,346.6z M506.9,345.3c-1.3-1.3,4.9-2.5,4.2-0.8L506.9,345.3z M513.7,344
	c-1.3-1.3,4.9-2.5,4.2-0.8L513.7,344z M520.4,342.7c-1.3-1.3,4.9-2.5,4.2-0.8C524.6,341.9,520.4,342.7,520.4,342.7z M527.1,341.3
	c-1.3-1.3,4.9-2.5,4.2-0.8L527.1,341.3z M596.9,341.2l-0.8-4.2C597.5,335.7,598.6,341.8,596.9,341.2z M533.9,340
	c-1.3-1.3,4.9-2.5,4.2-0.8C538.1,339.2,533.9,340,533.9,340z M540.6,338.7c-1.3-1.3,4.9-2.5,4.2-0.8
	C544.8,337.9,540.6,338.7,540.6,338.7z M547.3,337.4c-1.3-1.3,4.9-2.5,4.2-0.8L547.3,337.4z M554.1,336c-1.3-1.3,4.9-2.5,4.2-0.8
	L554.1,336z M560.8,334.7c-1.3-1.3,4.9-2.5,4.2-0.8C565,333.9,560.8,334.7,560.8,334.7z M595.6,334.4c0.1-1.6-2.7-3.1-1.2-4.1
	C595.3,331.2,597.9,334.3,595.6,334.4z M567.5,333.4c-1.3-1.3,4.9-2.5,4.2-0.8L567.5,333.4z M574.2,332.1c-1.3-1.3,4.9-2.5,4.2-0.8
	C578.4,331.3,574.2,332.1,574.2,332.1z M581,330.8c-1.3-1.3,4.9-2.5,4.2-0.8L581,330.8z M591.6,329.7c-1.3-0.6-2.5-0.6-3.9-0.4
	C586.6,327.3,593.2,327.9,591.6,329.7z M352.1,489.9c-1.1-0.2-3.5,0.1-2.4-1.4C351.4,488.9,356.4,489.3,352.1,489.9z M356.4,489.1
	c-1.3-1.3,4.9-2.8,4.2-1L356.4,489.1z M347,487.9c-0.9-0.8-3.5-4-1.2-4.1C345.6,485.5,348.6,486.8,347,487.9z M363.1,487.5
	c-1.3-1.3,4.9-2.8,4.2-1C367.3,486.5,363.1,487.5,363.1,487.5z M369.7,486c-1.3-1.3,4.9-2.8,4.2-1C373.9,485,369.7,486,369.7,486z
	 M376.5,484.3c-1-1.5,2.2-1.7,2.7-3.3C381.1,482,377.6,483.8,376.5,484.3z M344.2,481.4c0.2-0.7-2.1-5,0-4.4
	C344,477.6,346.3,481.9,344.2,481.4z M381.1,479c-1.8,0-0.3-2.9-1.3-4.2C381.8,474,381.3,477.6,381.1,479z M342.7,474.8
	c0.2-0.7-2.1-5,0-4.4C342.5,471,344.8,475.3,342.7,474.8z M379.3,472.3c0.2-0.7-2.1-5,0-4.4C379.1,468.5,381.4,472.8,379.3,472.3z
	 M341.1,468.1c0.2-0.7-2.1-5,0-4.4C340.9,464.3,343.2,468.6,341.1,468.1z M446.4,467.9c-4.7-0.7-1.3-1.3,1.4-1.2
	C448.9,467.2,447.6,468.1,446.4,467.9z M450.9,467.1c-1.3-1.3,4.9-2.8,4.2-1L450.9,467.1z M441.5,466.1c-0.3-0.7-4.3-3.1-2.4-3.8
	C439.5,463.1,443.2,465.2,441.5,466.1z M377.7,465.6c0.2-0.7-2.1-5,0-4.4C377.5,461.8,379.8,466.1,377.7,465.6z M457.6,465.5
	c-1.3-1.3,4.9-2.8,4.2-1C461.8,464.5,457.6,465.5,457.6,465.5z M464.2,463.9c-1.3-1.3,4.9-2.8,4.2-1
	C468.4,462.9,464.2,463.9,464.2,463.9z M470.9,462.4c-0.8-1.9,2.7-1.1,3.6-2.5C476.1,461.5,472.1,462,470.9,462.4z M339.6,461.4
	c0.2-0.7-2.1-5,0-4.4C339.4,457.6,341.7,461.9,339.6,461.4z M436.6,461.2l-3-3C434,456.4,438.4,460.8,436.6,461.2z M376.2,458.9
	c0.2-0.7-2.1-4.9,0-4.3C376,455.4,378.1,459.3,376.2,458.9z M476.9,458.7c-1.7-0.6,0.5-2.8,0-4.3C479,453.8,477.5,457.5,476.9,458.7
	z M431.8,456.3l-3-3C429.2,451.5,433.6,455.9,431.8,456.3z M378.9,454.9c-1.3-1.3,4.9-2.8,4.2-1L378.9,454.9z M338,454.7
	c0.2-0.7-2.1-5,0-4.4C337.8,450.9,340.1,455.2,338,454.7z M385.6,453.4c-1.3-1.3,4.9-2.8,4.2-1C389.8,452.4,385.6,453.4,385.6,453.4
	z M476.4,452.1c-0.4-1.2-1.7-2.2-2.6-3.1C474.6,447.2,478.8,452,476.4,452.1z M392.3,451.8c-1.3-1.3,4.9-2.8,4.2-1L392.3,451.8z
	 M427,451.4l-3-3C424.4,446.6,428.8,451,427,451.4z M399,450.2c-1.3-1.3,4.9-2.8,4.2-1L399,450.2z M405.7,448.7
	c-1.3-1.3,4.9-2.8,4.2-1C409.9,447.7,405.7,448.7,405.7,448.7z M336.4,448c0.2-0.7-2.1-5,0-4.4C336.2,444.2,338.5,448.5,336.4,448z
	 M471.9,447.2l-3.1-2.9C469.2,442.6,473.7,446.8,471.9,447.2z M412.3,447.1c-1.3-1.3,4.9-2.8,4.2-1L412.3,447.1z M422.1,446.6
	c-0.7-1.1-1.9-1.6-3.1-1C418,442.7,424.7,445,422.1,446.6z M466.9,442.5l-3.1-2.9C464.2,437.9,468.7,442.1,466.9,442.5z
	 M334.9,441.4c0.2-0.7-2.1-5,0-4.4C334.7,437.6,337,441.9,334.9,441.4z M461.9,437.8l-3.1-2.9C459.2,433.2,463.7,437.4,461.9,437.8z
	 M333.3,434.7c0.2-0.7-2.1-5,0-4.4C333.1,430.9,335.4,435.2,333.3,434.7z M456.9,433.1l-3.5-3.3c1.4-0.7,2.7-4.3,4.1-2.9
	C452.7,430.3,458.1,430.4,456.9,433.1z M331.8,428c0.2-0.7-2.1-5,0-4.4C331.6,424.2,333.9,428.5,331.8,428z M459.1,424.9
	c-1.7-0.9,1.1-2.9,1.4-4.2C462.5,421.3,459.6,423.6,459.1,424.9z M370.4,423.7c-1.3-1.3,4.9-2.8,4.2-1L370.4,423.7z M367.8,423
	c0.2-0.7-2.1-5,0-4.4C367.6,419.2,369.9,423.5,367.8,423z M377.1,422.1c-1.3-1.3,4.9-2.8,4.2-1C381.3,421.1,377.1,422.1,377.1,422.1
	z M330.2,421.3c0.2-0.7-2.1-5,0-4.4C330,417.5,332.3,421.8,330.2,421.3z M383.7,420.6c-1.3-1.3,4.9-2.8,4.2-1
	C387.9,419.6,383.7,420.6,383.7,420.6z M390.4,419c-1.3-1.3,4.9-2.8,4.2-1L390.4,419z M462.4,418.8c-1.9-0.5,0.5-2.9,0.4-4.4
	C464.9,414.6,462.7,417.5,462.4,418.8z M397.1,417.5c-1.3-1.3,4.9-2.8,4.2-1C401.3,416.5,397.1,417.5,397.1,417.5z M366.2,416.4
	c0.2-0.4-1.9-5.1-0.3-4.7c0.1,0.3,0,0.6,0.4,0.4C366.2,412.8,368.2,416.7,366.2,416.4z M403.8,415.9c-1.3-1.3,4.9-2.8,4.2-1
	L403.8,415.9z M328.7,414.6c0.2-0.7-2.1-5,0-4.4C328.5,410.8,330.8,415.1,328.7,414.6z M410.5,414.3c-1.3-1.3,4.9-2.8,4.2-1
	L410.5,414.3z M417.1,412.8c-0.1-0.6-0.4-1.2,0.5-1.2C422.7,409.9,421.4,412.3,417.1,412.8z M464.4,412.2c-2,0-0.2-3-0.5-4.4
	C465.9,407.6,464.3,410.8,464.4,412.2z M368.6,412.1c-1.3-1.3,4.9-2.8,4.2-1C372.8,411.1,368.6,412.1,368.6,412.1z M423.8,410.8
	c-1.1-1.6,2.8-1.9,3.1-2.9C428.6,409.1,425.4,409.9,423.8,410.8z M375.3,410.6c-1.3-1.3,4.9-2.8,4.2-1L375.3,410.6z M382,409
	c-1.3-1.3,4.9-2.8,4.2-1L382,409z M327.1,408c0.2-0.7-2.1-5,0-4.4C326.9,404.2,329.2,408.5,327.1,408z M388.7,407.4
	c-1.3-1.3,4.9-2.8,4.2-1C392.9,406.4,388.7,407.4,388.7,407.4z M428.6,406.9c-1.6,0-0.6-1.8-1.2-3.1
	C427.3,400.2,429.5,405.4,428.6,406.9z M395.3,405.9c-1.3-1.3,4.9-2.8,4.2-1L395.3,405.9z M463.9,405.2c0.4-1.4-1.3-4.5,0.7-4.3
	C464.5,402.3,465.9,405.5,463.9,405.2z M402,404.3c-1.3-1.3,4.9-2.8,4.2-1L402,404.3z M408.7,402.8c-1.3-1.3,4.9-2.8,4.2-1
	C412.9,401.8,408.7,402.8,408.7,402.8z M325.5,401.3c0.2-0.7-2.1-5,0-4.4C325.3,397.5,327.6,401.8,325.5,401.3z M415.4,401.2
	c-0.8-1.9,3-1.3,4.1-1.8C420.1,401.2,416.9,400.5,415.4,401.2z M425.9,400.9c-0.8-0.5-2-0.7-3.9-0.7
	C421.6,398,427.9,399.4,425.9,400.9z M463.3,398.5c0.1-1.4-1.9-4.4,0.1-4.4C463.4,395.4,465.3,398.7,463.3,398.5z M324,394.6
	c-0.1-1.2-0.4-5.3,1.5-4.1C324.4,391.8,325.8,394.4,324,394.6z M461.7,391.9c0-1.5-2.4-3.9-0.5-4.4
	C461.3,388.8,463.8,391.7,461.7,391.9z M326.9,388.6c-2-1,3.8-4,3.5-1.7C329.1,387.1,327.9,387.6,326.9,388.6z M332.9,386.2
	c-1.3-1.3,4.9-2.8,4.2-1L332.9,386.2z M459.2,385.6c-0.2-1.4-3-3.5-1.3-4.2C458.4,382.6,461,385,459.2,385.6z M339.6,384.7
	c-1.3-1.3,4.9-2.8,4.2-1C343.8,383.7,339.6,384.7,339.6,384.7z M346.3,383.1c-1.3-1.3,4.9-2.8,4.2-1L346.3,383.1z M353,381.6
	c-1.3-1.3,4.9-2.8,4.2-1L353,381.6z M359.6,380c-1.3-1.3,4.9-2.8,4.2-1C363.8,379,359.6,380,359.6,380z M455.7,379.8
	c-0.6-1.3-3.7-2.8-2.1-3.9C454.3,376.9,457.4,378.8,455.7,379.8z M366.3,378.4c-1.3-1.3,4.9-2.8,4.2-1L366.3,378.4z M373,376.9
	c-1.3-1.3,4.9-2.8,4.2-1L373,376.9z M379.7,375.3c-1.3-1.3,4.9-2.8,4.2-1C383.9,374.3,379.7,375.3,379.7,375.3z M451.1,374.9
	c-0.7-1.1-4.1-1.9-2.9-3.3C449.1,372.5,452.5,373.6,451.1,374.9z M386.4,373.8c-1.3-1.3,4.9-2.8,4.2-1L386.4,373.8z M393,372.2
	c-1.3-1.3,4.9-2.8,4.2-1L393,372.2z M445.6,371.1c-1-1-4.5-1.1-3.4-2.7C443.4,369.1,446.9,369.5,445.6,371.1z M399.7,370.7
	c-1.3-1.3,4.9-2.8,4.2-1C403.9,369.7,399.7,370.7,399.7,370.7z M406.4,369.1c-0.7-1.9,2.8-1.3,4-1.9
	C411.2,369,407.6,368.4,406.4,369.1z M439.3,368.5c-1.1-0.8-4.6-0.2-3.9-2C436.6,367,440.3,366.7,439.3,368.5z M413.1,367.7
	c-0.8-1.9,2.9-1.2,4.1-1.6C417.8,367.9,414.4,367.1,413.1,367.7z M432.7,367c-1.3-0.6-4.7,0.5-4.1-1.4C430,366,433.5,365,432.7,367z
	 M419.9,366.8c-0.6-1.9,3-0.9,4.2-1.2C424.5,367.5,421.2,366.3,419.9,366.8z M199.1,526.8c-0.8-1.7,3.1-1.2,4-1.8
	C204.1,526.7,200.1,526.5,199.1,526.8z M196.4,526.5c-1.2-0.5-4.8-2.2-2.9-3.2C194.1,524.9,197.2,524.9,196.4,526.5z M205.9,525.5
	c-1.3-1.7,3.5-1.5,4-1.9C211.2,525.2,206.5,525,205.9,525.5z M212.6,524c-1.3-1.7,3.5-1.5,4-1.9C217.9,523.7,213.2,523.5,212.6,524z
	 M219.3,522.6c-1.1-1.6,2.5-1.3,3.1-1.7C225.8,521.3,220.3,522.5,219.3,522.6z M191.5,521.4c0-0.2-0.8-3.9-0.9-4.2
	C192,516,193.2,521.8,191.5,521.4z M225.9,520.2c-1.3-1.2,1.5-2.4,1.5-4.1C229.7,516.4,226.8,519.3,225.9,520.2z M190,514.7
	l-0.9-4.2C190.4,509.2,191.8,515.3,190,514.7z M227.5,513.8c0.2-0.9-2-4.7,0.1-4.3C227.5,510.4,229.7,514.3,227.5,513.8z M188.5,508
	l-0.9-4.2C188.9,502.5,190.3,508.6,188.5,508z M226.1,507.1l-0.9-4.2C226.5,501.6,227.9,507.7,226.1,507.1z M299.8,505.1
	c-1.2-0.1-5.2-0.6-3.6-2.1C297.1,504.1,300.8,503.5,299.8,505.1z M302.6,504.7c-1.3-1.3,4.9-2.6,4.2-0.9
	C306.8,503.8,302.6,504.7,302.6,504.7z M309.3,503.3c-1.3-1.3,4.9-2.6,4.2-0.9L309.3,503.3z M293.7,501.9c-0.7-1-2.5-4.4-0.5-4.4
	C293,499,295.3,501.1,293.7,501.9z M316,501.8c-1.3-1.3,4.9-2.6,4.2-0.9L316,501.8z M187.1,501.3l-0.9-4.2
	C187.5,495.8,188.9,501.9,187.1,501.3z M224.7,500.4l-0.9-4.2C225.1,494.9,226.5,501,224.7,500.4z M322.7,500.4
	c-0.8-1.8,2.7-1,3.5-2.4C327.8,499.5,323.9,500.1,322.7,500.4z M328.7,496.7c-1.8-0.6,0.6-2.8,0-4.4
	C330.9,491.8,329.3,495.6,328.7,496.7z M291.7,495.2l-0.9-4.2C292.1,489.7,293.5,495.8,291.7,495.2z M185.7,494.6l-0.9-4.2
	C186.1,489.1,187.5,495.2,185.7,494.6z M223.2,493.7l-0.9-4.2C223.6,488.2,225,494.3,223.2,493.7z M328.3,489.9l-0.9-4.2
	C328.7,484.4,330.1,490.5,328.3,489.9z M290.2,488.5l-0.9-4.2C290.6,483,292,489.1,290.2,488.5z M184.2,487.9l-0.9-4.2
	C184.6,482.4,186,488.5,184.2,487.9z M221.8,487c-2.4-4.5,5.3-2.9,0.7-1.9C222.7,485.9,223.1,487,221.8,487z M226.6,484.3
	c-1.3-1.7,3.5-1.5,4-1.9C231.9,484,227.2,483.8,226.6,484.3z M326.8,483.2l-0.9-4.2C327.2,477.7,328.6,483.8,326.8,483.2z
	 M233.3,482.9c-1.3-1.7,3.5-1.5,4-1.9C238.6,482.6,233.9,482.4,233.3,482.9z M288.8,481.8l-0.9-4.2
	C289.2,476.3,290.6,482.4,288.8,481.8z M240,481.4c-1.3-1.7,3.5-1.5,4-1.9C245.3,481.1,240.6,480.9,240,481.4z M182.8,481.1
	l-0.9-4.2C183.2,475.6,184.6,481.7,182.8,481.1z M246.7,480c-1.3-1.7,3.5-1.5,4-1.9C252,479.7,247.3,479.5,246.7,480z M253.4,478.6
	c-1.3-1.7,3.5-1.5,4-1.9C258.7,478.3,254,478.1,253.4,478.6z M260.1,477.1c-1.3-1.7,3.5-1.5,4-1.9
	C265.4,476.8,260.7,476.6,260.1,477.1z M325.4,476.5l-0.9-4.2C325.8,471,327.2,477.1,325.4,476.5z M266.8,475.7
	c-1.3-1.7,3.5-1.5,4-1.9C272.1,475.4,267.4,475.2,266.8,475.7z M287.3,475c-0.1-1-1.6-5.1,0-4.8C287.1,470.8,289.5,475.6,287.3,475z
	 M181.3,474.4l-0.9-4.2C181.7,468.9,183.1,475,181.3,474.4z M273.5,474.2c-1.3-1.3,4.9-2.6,4.2-0.9
	C277.7,473.3,273.5,474.2,273.5,474.2z M280.2,472.8c-1.3-1.3,4.9-2.6,4.2-0.9C284.4,471.9,280.2,472.8,280.2,472.8z M324,469.8
	l-0.9-4.2C324.4,464.3,325.8,470.4,324,469.8z M179.9,467.7l-0.9-4.2C180.3,462.2,181.7,468.3,179.9,467.7z M322.5,463.1l-0.9-4.2
	C322.9,457.6,324.3,463.7,322.5,463.1z M178.5,461l-0.9-4.2C178.9,455.5,180.3,461.6,178.5,461z M321.1,456.4l-0.9-4.2
	C321.5,450.9,322.9,457,321.1,456.4z M177,454.3l-0.9-4.2C177.4,448.8,178.8,454.9,177,454.3z M214.4,452.4c-1.1-3,1.6-0.7,3.4-1.8
	C219,452.2,215,451.9,214.4,452.4z M220.5,451.1c-1.3-1.7,3.5-1.5,4-1.9C225.8,450.8,221.1,450.6,220.5,451.1z M227.2,449.7
	c-1.3-1.7,3.5-1.5,4-1.9C232.5,449.4,227.8,449.2,227.2,449.7z M319.6,449.7l-0.9-4.2C320,444.2,321.4,450.3,319.6,449.7z
	 M213.5,448.3l-0.9-4.2C213.9,442.8,215.3,448.9,213.5,448.3z M233.9,448.3c-1.3-1.7,3.5-1.5,4-1.9
	C239.2,448,234.5,447.8,233.9,448.3z M175.6,447.6l-0.9-4.2C176,442.1,177.4,448.2,175.6,447.6z M240.6,446.8
	c-1.3-1.7,3.5-1.5,4-1.9C245.9,446.5,241.2,446.3,240.6,446.8z M247.3,445.4c-1.3-1.7,3.5-1.5,4-1.9
	C252.6,445.1,247.9,444.9,247.3,445.4z M254,443.9c-1.3-1.7,3.5-1.5,4-1.9C259.3,443.6,254.6,443.4,254,443.9z M318.2,443l-0.9-4.2
	C318.6,437.5,320,443.6,318.2,443z M260.7,442.5c-1.3-1.7,3.5-1.5,4-1.9C266,442.2,261.3,442,260.7,442.5z M212.1,441.6l-0.9-4.2
	C212.5,436.1,213.9,442.2,212.1,441.6z M267.4,441.1c-1.3-1.7,3.5-1.5,4-1.9C272.7,440.8,268,440.6,267.4,441.1z M174.2,440.9
	l-0.9-4.2C174.6,435.4,176,441.5,174.2,440.9z M274.1,439.6c-1.3-1.3,4.9-2.6,4.2-0.9C278.3,438.7,274.1,439.6,274.1,439.6z
	 M279.2,437.1l-0.9-4.2C279.6,431.6,281,437.7,279.2,437.1z M316.8,436.3l-0.9-4.2C317.2,430.8,318.6,436.9,316.8,436.3z
	 M210.6,434.9l-0.9-4.2C211,429.4,212.4,435.5,210.6,434.9z M172.7,434.2c-0.2-1-1.6-5.6,0.2-4.1
	C172.5,431.1,174.6,434.3,172.7,434.2z M277.8,430.4l-0.9-4.2C278.2,424.9,279.6,431,277.8,430.4z M315.3,429.6l-0.9-4.2
	C315.7,424.1,317.1,430.2,315.3,429.6z M209.2,428.2l-0.9-4.2C209.6,422.7,211,428.8,209.2,428.2z M173.4,427.5
	c-2.1-0.5,0.9-3.2,1.9-3.9C176.7,424.8,173.5,425.9,173.4,427.5z M276.3,423.7l-0.9-4.2C276.7,418.2,278.1,424.3,276.3,423.7z
	 M178.1,423.5c-1.6-1.6,3.4-1.5,3.9-1.9C183.3,423.2,178.7,423,178.1,423.5z M313.9,422.8l-0.9-4.2
	C314.3,417.3,315.7,423.4,313.9,422.8z M184.7,422.1c-1.3-1.7,3.5-1.5,4-1.9C190,421.8,185.3,421.6,184.7,422.1z M207.5,421.8
	c-0.4-1.6-3.5-2.1-2.5-3.5C206.1,418.8,209.7,421,207.5,421.8z M191.4,420.7c-1.3-1.7,3.5-1.5,4-1.9
	C196.7,420.4,192,420.2,191.4,420.7z M198.1,419.2c-0.9-1.5,1.5-1.2,2.2-1.5C205,417.3,200,419,198.1,419.2z M274.9,417l-0.9-4.2
	C275.3,411.5,276.7,417.6,274.9,417z M312.4,416.1l-0.9-4.2C312.8,410.6,314.2,416.7,312.4,416.1z M273.4,410.3
	c-0.2-1.2-1-5.1,1-4.2C273.5,407.4,275.2,410,273.4,410.3z M311,409.4l-0.9-4.2C311.4,403.9,312.8,410,311,409.4z M275.6,404
	c-2-1.1,1.8-2.6,3-3.1C279.5,402.6,276.3,402.5,275.6,404z M309.6,402.7c-0.3-1.5-1-3-2.1-4.1C308.7,396.5,312,403,309.6,402.7z
	 M281.4,401.4c-1.3-1.3,4.9-2.6,4.2-0.9L281.4,401.4z M288.1,399.9c-1.3-1.3,4.9-2.6,4.2-0.9C292.3,399,288.1,399.9,288.1,399.9z
	 M294.8,398.5c-1.3-1.3,4.9-2.6,4.2-0.9L294.8,398.5z M305.5,397.3c-1.3-0.6-2.6-0.5-4-0.3C300.4,395,306.8,395.5,305.5,397.3z
	 M97.8,543.2c-1-0.1-3.4,0-2.3-1.4C97.3,542.1,102.4,542.5,97.8,543.2z M102.2,542.4c-1.3-1.3,4.9-2.5,4.2-0.8
	C106.4,541.6,102.2,542.4,102.2,542.4z M92.8,541.3c-0.9-0.8-3.6-4-1.3-4.1C91.4,538.8,94.3,540.2,92.8,541.3z M108.9,541.1
	c-1.3-1.3,4.9-2.5,4.2-0.8L108.9,541.1z M115.6,539.8c-1.3-1.3,4.9-2.5,4.2-0.8C119.8,539,115.6,539.8,115.6,539.8z M122.4,538.4
	c-0.9-1.7,2.3-1.6,3-3.2C127.4,536.3,123.6,538,122.4,538.4z M90,534.8l-0.8-4.2C90.6,529.3,91.7,535.4,90,534.8z M127.5,533.5
	c-1.9-0.2,0-2.9-1-4.3C128.6,528.4,127.7,532.2,127.5,533.5z M88.7,528.1l-0.8-4.2C89.3,522.6,90.4,528.7,88.7,528.1z M126,526.7
	l-0.8-4.2C126.6,521.2,127.7,527.3,126,526.7z M87.4,521.4l-0.8-4.2C88,515.9,89.1,522,87.4,521.4z M124.7,520l-0.8-4.2
	C125.3,514.5,126.4,520.6,124.7,520z M86,514.6l-0.8-4.2C86.6,509.1,87.7,515.2,86,514.6z M123.4,513.2l-0.8-4.2
	C124,507.7,125.1,513.8,123.4,513.2z M84.7,507.9l-0.8-4.2C85.3,502.4,86.4,508.5,84.7,507.9z M122.1,506.5l-0.8-4.2
	C122.7,501,123.8,507.1,122.1,506.5z M83.4,501.2l-0.8-4.2C84,495.7,85.1,501.8,83.4,501.2z M120.7,499.8l-0.8-4.2
	C121.3,494.3,122.4,500.4,120.7,499.8z M82.1,494.4l-0.8-4.2C82.7,488.9,83.8,495,82.1,494.4z M119.4,493l-0.8-4.2
	C120,487.5,121.1,493.6,119.4,493z M80.8,487.7l-0.8-4.2C81.4,482.2,82.5,488.3,80.8,487.7z M118.1,486.3l-0.8-4.2
	C118.7,480.8,119.8,486.9,118.1,486.3z M38,482.7c-1.1,0-5.3-0.7-3.7-2.3C35.4,481.7,38.4,480.9,38,482.7z M40.6,482.4
	c-1.3-1.3,4.9-2.5,4.2-0.8L40.6,482.4z M47.3,481.1c-1.3-1.3,4.9-2.5,4.2-0.8C51.5,480.3,47.3,481.1,47.3,481.1z M79.4,481l-0.8-4.2
	C80,475.5,81.1,481.6,79.4,481z M54.1,479.8c-1.3-1.3,4.9-2.5,4.2-0.8L54.1,479.8z M116.8,479.6l-0.8-4.2
	C117.4,474.1,118.5,480.2,116.8,479.6z M31.8,479.3c-0.6-1.1-2.3-4.4-0.3-4.4C31.3,476.4,33.6,478.6,31.8,479.3z M60.8,478.4
	c-1.3-1.3,4.9-2.5,4.2-0.8L60.8,478.4z M67.5,477.1c-1.3-1.3,4.9-2.5,4.2-0.8C71.7,476.3,67.5,477.1,67.5,477.1z M74.3,475.8
	c-1.3-1.3,4.9-2.5,4.2-0.8L74.3,475.8z M115.4,472.8l-0.8-4.2C116,467.3,117.1,473.4,115.4,472.8z M30,472.5l-0.8-4.2
	C30.6,467,31.7,473.1,30,472.5z M116.2,467.5c-1.3-1.3,4.9-2.5,4.2-0.8C120.4,466.7,116.2,467.5,116.2,467.5z M123,466.2
	c-1.3-1.3,4.9-2.5,4.2-0.8C127.2,465.4,123,466.2,123,466.2z M28.6,465.8l-0.8-4.2C29.2,460.3,30.3,466.4,28.6,465.8z M129.7,464.9
	c-1.3-1.3,4.9-2.5,4.2-0.8L129.7,464.9z M136.4,463.6c-1.3-1.3,4.9-2.5,4.2-0.8C140.6,462.8,136.4,463.6,136.4,463.6z M143.2,462.2
	c-1.3-1.3,4.9-2.5,4.2-0.8C147.4,461.4,143.2,462.2,143.2,462.2z M149.9,460.9c-1.3-1.3,4.9-2.5,4.2-0.8
	C154.1,460.1,149.9,460.9,149.9,460.9z M156.7,459.1c-1.2-1.3,1.9-2.1,2-3.8C160.8,455.8,157.7,458.4,156.7,459.1z M27.3,459.1
	c-0.8-1.5-0.5-7.2,0.5-2.9C27.8,456.9,29.1,459.4,27.3,459.1z M160.2,453c-1.3,0.7-2.3-4.7-0.6-4.3
	C159.8,449.8,160.3,451.9,160.2,453z M28.1,452.4c-2.1-0.6,1-3.1,2-3.9C31.2,449.7,28.3,450.8,28.1,452.4z M32.9,448.5
	c-1.3-1.4,4.9-2.5,4.2-0.8C37.1,447.7,32.9,448.5,32.9,448.5z M39.6,447.2c-1.3-1.3,4.9-2.5,4.2-0.8
	C43.8,446.4,39.6,447.2,39.6,447.2z M158.1,446.3l-0.8-4.2C158.7,440.8,159.8,446.9,158.1,446.3z M46.3,445.9
	c-1.3-1.3,4.9-2.5,4.2-0.8L46.3,445.9z M53.1,444.6c-1.3-1.3,4.9-2.5,4.2-0.8C57.3,443.8,53.1,444.6,53.1,444.6z M59.8,443.3
	c-1.3-1.3,4.9-2.5,4.2-0.8L59.8,443.3z M66.5,441.9c-1.3-1.3,4.9-2.5,4.2-0.8L66.5,441.9z M73.3,440.6c-1.3-1.3,4.9-2.5,4.2-0.8
	C77.5,439.8,73.3,440.6,73.3,440.6z M156.7,439.6l-0.8-4.2C157.3,434.1,158.4,440.2,156.7,439.6z M80,439.3
	c-1.3-1.3,4.9-2.5,4.2-0.8L80,439.3z M86.7,438c-1.3-1.3,4.9-2.5,4.2-0.8C90.9,437.2,86.7,438,86.7,438z M93.4,436.7
	c-1.3-1.3,4.9-2.5,4.2-0.8C97.6,435.9,93.4,436.7,93.4,436.7z M100.2,435.3c-1.3-1.3,4.9-2.5,4.2-0.8
	C104.4,434.5,100.2,435.3,100.2,435.3z M106.9,434c-1.3-1.3,4.9-2.5,4.2-0.8L106.9,434z M155.4,432.9c0.4-2.2-2.7-4.6-1.5-5.8
	C155.1,428.1,157.8,432.7,155.4,432.9z M113.6,432.7c-1.3-1.3,4.9-2.5,4.2-0.8C117.8,431.9,113.6,432.7,113.6,432.7z M120.4,431.4
	c-1.3-1.3,4.9-2.5,4.2-0.8L120.4,431.4z M127.1,430c-1.3-1.3,4.9-2.5,4.2-0.8L127.1,430z M133.8,428.7c-1.3-1.3,4.9-2.5,4.2-0.8
	C138,427.9,133.8,428.7,133.8,428.7z M140.6,427.4c-1.3-1.3,4.9-2.5,4.2-0.8L140.6,427.4z M151.2,426.4c-1.3-0.6-2.6-0.6-4-0.4
	C146.1,424,152.6,424.5,151.2,426.4z M511.6,292.9c-3.4-0.8,1.9-1.3,3.1-1.5C515.6,293,512.5,292.6,511.6,292.9z M517.4,292
	c-1.3-1.4,4.9-2.4,4.2-0.7C521.6,291.3,517.4,292,517.4,292z M507.9,291.9c-1.1-0.7-4.3-3.1-2.2-3.7
	C506,289.8,509.1,290.6,507.9,291.9z M524.2,290.8c-1.3-1.4,4.9-2.4,4.2-0.7C528.4,290.1,524.2,290.8,524.2,290.8z M530.9,289.7
	c-1.3-1.4,4.9-2.4,4.2-0.7C535.1,289,530.9,289.7,530.9,289.7z M537.7,288.1c-1.2-1.4,1.9-2,2.2-3.7
	C542.1,285,538.8,287.5,537.7,288.1z M504.1,286c0.2-0.7-1.7-5,0.3-4.4C504.2,282.3,506.1,286.5,504.1,286z M541.6,282.2
	c-1.7,0.3-0.9-3-1.5-4.2C542,277.1,541.4,281,541.6,282.2z M502.9,279.3c0.2-0.7-1.7-5,0.3-4.4C503,275.6,504.9,279.8,502.9,279.3z
	 M539.7,275.5c0.2-0.7-1.7-5,0.3-4.4C539.8,271.8,541.7,276,539.7,275.5z M501.7,272.5c0.2-0.7-1.7-5,0.3-4.4
	C501.8,268.8,503.7,273,501.7,272.5z M538.5,268.7c0.2-0.7-1.7-5,0.3-4.4C538.6,265,540.5,269.2,538.5,268.7z M500.6,265.7
	c0.2-0.7-1.7-5,0.3-4.4C500.7,262,502.6,266.2,500.6,265.7z M537.4,261.9c0.2-0.7-1.7-5,0.3-4.4
	C537.5,258.2,539.4,262.4,537.4,261.9z M499.4,259c0.2-0.7-1.7-5,0.3-4.4C499.5,255.3,501.4,259.5,499.4,259z M536.2,255.2
	c0.2-0.7-1.7-5,0.3-4.4C536.3,251.5,538.2,255.7,536.2,255.2z M498.2,252.2c0.2-0.7-1.7-5,0.3-4.4
	C498.3,248.5,500.2,252.7,498.2,252.2z M535,248.4c0.2-0.7-1.7-5,0.3-4.4C535.1,244.7,537,248.9,535,248.4z M497.1,245.5
	c0.2-0.7-1.7-5,0.3-4.4C497.2,241.8,499.1,246,497.1,245.5z M533.9,241.7c0.2-0.7-1.7-5,0.3-4.4C534,238,535.9,242.2,533.9,241.7z
	 M495.9,238.7c0.2-0.7-1.7-5,0.3-4.4C496,235,497.9,239.2,495.9,238.7z M532.7,234.9c0.2-0.7-1.7-5,0.3-4.4
	C532.8,231.2,534.7,235.4,532.7,234.9z M494.7,231.9c0.2-0.7-1.7-5,0.3-4.4C494.8,228.2,496.7,232.4,494.7,231.9z M453.3,231.1
	c-1.1-0.1-3.8,0-2.7-1.5C452,230,457.1,230.6,453.3,231.1z M457.2,230.6c-1.3-1.4,4.9-2.4,4.2-0.7
	C461.4,229.9,457.2,230.6,457.2,230.6z M464,229.4c-1.3-1.4,4.9-2.4,4.2-0.7L464,229.4z M448,228.9c-1.1-1.2-3.7-5.6-1.4-5.9
	C446.2,225.1,449.3,227.6,448,228.9z M470.8,228.2c-1.3-1.4,4.9-2.4,4.2-0.7L470.8,228.2z M531.5,228.1c0.2-0.7-1.7-5,0.3-4.4
	C531.6,224.4,533.5,228.6,531.5,228.1z M477.5,227.1c-1.3-1.4,4.9-2.4,4.2-0.7C481.7,226.4,477.5,227.1,477.5,227.1z M484.3,225.9
	c-1.3-1.4,4.9-2.4,4.2-0.7L484.3,225.9z M493.6,225.2c0.2-2.2-3.1,0.8-2.8-1.5C492.6,222.8,496.3,223.4,493.6,225.2z M530.4,221.4
	c0.2-0.6-1.6-5,0.2-4.5C530.6,217.6,532.6,221.9,530.4,221.4z M445.2,220.7c0.2-0.7-1.7-5,0.3-4.4
	C445.3,217,447.2,221.2,445.2,220.7z M533.2,217.4c-1.3-1.4,4.9-2.4,4.2-0.7L533.2,217.4z M540,216.3c-1.3-1.4,4.9-2.4,4.2-0.7
	L540,216.3z M546.7,215.1c-1.3-1.4,4.9-2.4,4.2-0.7C550.9,214.4,546.7,215.1,546.7,215.1z M553.5,213.9c-1.3-1.4,4.9-2.4,4.2-0.7
	L553.5,213.9z M444,213.9c0.2-0.7-1.7-5,0.3-4.4C444.1,210.2,446,214.4,444,213.9z M560.2,212.8c-1.3-1.4,4.9-2.4,4.2-0.7
	L560.2,212.8z M567,211.6c-0.9-1.9,2.9-1.1,3.9-1.9C572.3,211.4,568,211.1,567,211.6z M573.6,209.1c-1.5-1,1.3-2.4,1.2-4.2
	C577.1,205,574.4,208.3,573.6,209.1z M442.8,207.2c-0.2-1-1.4-5.9,0.4-3.8C442.9,204.4,444.9,207.5,442.8,207.2z M574.7,202.6
	c0.2-0.7-1.7-5,0.3-4.4C574.8,198.9,576.7,203.1,574.7,202.6z M443.8,200.5c-2.1-0.5,1.1-3.1,2.1-3.7
	C447.1,198.2,444.2,198.9,443.8,200.5z M448.7,196.8c-1.3-1.4,4.9-2.4,4.2-0.7C452.9,196.1,448.7,196.8,448.7,196.8z M573.6,195.8
	c0.2-0.7-1.7-5,0.3-4.4C573.7,192.1,575.6,196.3,573.6,195.8z M455.5,195.7c-1.3-1.4,4.9-2.4,4.2-0.7L455.5,195.7z M462.2,194.5
	c-1.3-1.4,4.9-2.4,4.2-0.7C466.4,193.8,462.2,194.5,462.2,194.5z M469,193.3c-1.3-1.4,4.9-2.4,4.2-0.7L469,193.3z M475.7,192.2
	c-1.3-1.4,4.9-2.4,4.2-0.7C479.9,191.5,475.7,192.2,475.7,192.2z M482.5,191c-1.3-1.4,4.9-2.4,4.2-0.7L482.5,191z M489.3,189.8
	c-1.3-1.4,4.9-2.4,4.2-0.7L489.3,189.8z M572.4,189.1c0.2-0.7-1.7-5,0.3-4.4C572.5,185.4,574.4,189.6,572.4,189.1z M496,188.6
	c-1.3-1.4,4.9-2.4,4.2-0.7C500.2,187.9,496,188.6,496,188.6z M502.8,187.5c-1.3-1.4,4.9-2.4,4.2-0.7L502.8,187.5z M509.5,186.3
	c-1.3-1.4,4.9-2.4,4.2-0.7L509.5,186.3z M516.3,185.1c-1.3-1.4,4.9-2.4,4.2-0.7C520.5,184.4,516.3,185.1,516.3,185.1z M523.1,184
	c-1.3-1.4,4.9-2.4,4.2-0.7L523.1,184z M529.8,182.8c-1.3-1.4,4.9-2.4,4.2-0.7L529.8,182.8z M571.2,182.3c0.3-1.4-3-4.2-0.9-3.9
	C571.1,179.3,573.2,182.1,571.2,182.3z M536.6,181.6c-1.3-1.4,4.9-2.4,4.2-0.7C540.8,180.9,536.6,181.6,536.6,181.6z M543.3,180.5
	c-1.3-1.4,4.9-2.4,4.2-0.7L543.3,180.5z M550.1,179.3c-1.3-1.4,4.9-2.4,4.2-0.7L550.1,179.3z M556.9,178.1c-1.3-1.4,4.9-2.4,4.2-0.7
	C561.1,177.4,556.9,178.1,556.9,178.1z M567.5,177.4c-0.9-0.4-1.8-0.6-2.7-0.6c-1.7,0.4-1.8-1.4,0-1
	C565.9,175.9,568.7,175.8,567.5,177.4z M409.7,312.5c-1.1-0.1-3.9,0-2.8-1.6C408.2,311.3,413.3,311.8,409.7,312.5z M413.5,312
	c-1.3-1.4,4.9-2.4,4.2-0.7L413.5,312z M420.3,311c-1.3-1.4,4.9-2.4,4.2-0.7L420.3,311z M404.2,310.2c-0.8-0.9-3.2-4.2-1-4.3
	C403,307.6,405.7,309,404.2,310.2z M427,309.9c-1.3-1.4,4.9-2.4,4.2-0.7C431.2,309.2,427,309.9,427,309.9z M433.8,308.9
	c-0.7-1.7,2.5-1.4,3.2-2.9C438.8,307.2,435.2,308.6,433.8,308.9z M402.1,305.2c0.2-0.7-1.7-5,0.3-4.4
	C402.2,301.5,404.1,305.7,402.1,305.2z M439.3,304.3c-1.8-0.5,0.3-2.9-0.6-4.3C440.9,299.2,439.6,303.1,439.3,304.3z M401,298.4
	c0.2-0.7-1.7-5,0.3-4.4C401.1,294.7,403,298.9,401,298.4z M438.2,297.5c0.2-0.7-1.7-5,0.3-4.4C438.3,293.8,440.2,298,438.2,297.5z
	 M400,291.6c0.2-0.7-1.7-5,0.3-4.4C400.1,287.9,402,292.1,400,291.6z M437.2,290.7c0.2-0.7-1.7-5,0.3-4.4
	C437.3,287,439.2,291.2,437.2,290.7z M398.9,284.9c0.2-0.7-1.7-5,0.3-4.4C399,281.2,400.9,285.4,398.9,284.9z M436.1,283.9
	c0.2-0.7-1.7-5,0.3-4.4C436.2,280.2,438.1,284.4,436.1,283.9z M397.9,278.1c0.2-0.7-1.7-5,0.3-4.4
	C398,274.4,399.9,278.6,397.9,278.1z M435.1,277.1c0.2-0.7-1.7-5,0.3-4.4C435.2,273.4,437.1,277.6,435.1,277.1z M396.8,271.3
	c0.2-0.7-1.7-5,0.3-4.4C396.9,267.6,398.8,271.8,396.8,271.3z M434,270.4c0.2-0.7-1.7-5,0.3-4.4C434.1,266.7,436,270.9,434,270.4z
	 M395.8,264.5c0.2-0.7-1.7-5,0.3-4.4C395.9,260.8,397.8,265,395.8,264.5z M433,263.6c0.2-0.7-1.7-5,0.3-4.4
	C433.1,259.9,435,264.1,433,263.6z M394.7,257.7c0.2-0.7-1.7-5,0.3-4.4C394.8,254,396.7,258.2,394.7,257.7z M432,256.8
	c0.2-0.7-1.7-5,0.3-4.4C432.1,253.1,434,257.3,432,256.8z M393.7,251c0.2-0.7-1.7-5,0.3-4.4C393.8,247.3,395.7,251.5,393.7,251z
	 M430.9,250c0.2-0.7-1.7-5,0.3-4.4C431,246.3,432.9,250.5,430.9,250z M392.6,244.2c0.2-0.7-1.7-5,0.3-4.4
	C392.7,240.5,394.6,244.7,392.6,244.2z M429.9,243.2c0.2-0.7-1.7-5,0.3-4.4C430,239.5,431.9,243.7,429.9,243.2z M391.6,237.4
	c0.2-0.7-1.7-5,0.3-4.4C391.7,233.7,393.6,237.9,391.6,237.4z M428.8,236.5c0.2-0.7-1.7-5,0.3-4.4
	C428.9,232.8,430.8,237,428.8,236.5z M390.6,230.6c0.2-0.7-1.7-5,0.3-4.4C390.7,226.9,392.6,231.1,390.6,230.6z M427.8,229.7
	c0.2-0.7-1.7-5,0.3-4.4C427.9,226,429.8,230.2,427.8,229.7z M389.5,223.8c0.2-0.7-1.7-5,0.3-4.4
	C389.6,220.1,391.5,224.3,389.5,223.8z M426.7,222.9c0.2-0.7-1.7-5,0.3-4.4C426.8,219.2,428.7,223.4,426.7,222.9z M388.5,217.1
	c-1.1-3.2,1-6.8,0.9-1.5C389.7,216.5,389.7,217.1,388.5,217.1z M425.7,216.1c0.2-0.7-1.7-5,0.3-4.4
	C425.8,212.4,427.7,216.6,425.7,216.1z M390.4,210.8c-2-1.1,1.7-2.9,2.9-3.3C394.1,209,391,209.2,390.4,210.8z M424.6,209.4
	c0-1.7-2.8-2.9-1.5-4.1C424,206.1,426.7,209,424.6,209.4z M396.1,208c-1.3-1.4,4.9-2.4,4.2-0.7C400.3,207.3,396.1,208,396.1,208z
	 M402.8,206.9c-1.3-1.4,4.9-2.4,4.2-0.7L402.8,206.9z M409.6,205.9c-1.3-1.4,4.9-2.4,4.2-0.7C413.8,205.2,409.6,205.9,409.6,205.9z
	 M420.4,204.9c-1.3-0.4-2.7-0.4-4-0.2C415.3,202.8,421.8,203,420.4,204.9z M254.2,333.5c-1-0.1-4.1-0.1-2.9-1.7
	C252.6,332.5,257.6,332.6,254.2,333.5z M258,333c-1.1-1.4,5.1-2.3,4.3-0.6L258,333z M264.8,332.1c-1.1-1.4,5.1-2.3,4.3-0.6
	C269.1,331.5,264.8,332.1,264.8,332.1z M271.6,331.2c-1.1-1.7,3.5-1.2,4.1-1.6C276.9,331.3,272.2,330.8,271.6,331.2z M248.8,331.1
	c-0.8-0.9-3.1-4.3-0.9-4.2C247.7,328.6,250.5,330.1,248.8,331.1z M278.4,330.2c-0.9-1.7,2.3-1.6,2.9-3.2
	C283.3,328,279.6,329.7,278.4,330.2z M246.6,325.2L246,321C247.4,319.9,248.3,326,246.6,325.2z M283.4,325.2c-1.8-0.2-0.2-2.9-1-4.3
	C284.4,320.3,283.7,323.9,283.4,325.2z M350.2,320.3c-1.1-0.1-3.8-0.1-2.7-1.6C348.8,319.3,354.1,319.4,350.2,320.3z M354.1,319.9
	c-1.1-1.4,5.1-2.3,4.3-0.6L354.1,319.9z M360.9,318.9c-1.1-1.7,3.5-1.2,4.1-1.6C366.2,319,361.5,318.5,360.9,318.9z M245.6,318.4
	c0.2-0.6-1.6-5.2,0.4-4.4C245.8,314.6,247.7,319.1,245.6,318.4z M282.2,318.3c0.2-0.6-1.6-5.2,0.4-4.4
	C282.4,314.5,284.3,319,282.2,318.3z M344.8,318.1c-0.4-0.3-2.5-2.9-2.8-3.3C342.8,313.2,346.4,317.7,344.8,318.1z M367.7,318
	c-1.1-1.4,5.1-2.3,4.3-0.6L367.7,318z M374.5,317.1c-0.3-1,0.2-1.1,1.1-1.2C380.7,314.1,378,317,374.5,317.1z M380.7,313.9
	c-1.7-0.8,0.9-2.7,0.4-4.3C383.3,309.3,381.3,312.8,380.7,313.9z M340.4,312.8l-2.7-3.3C338.3,307.8,342.3,312.6,340.4,312.8z
	 M244.7,311.6l-0.6-4.2C245.5,306.3,246.4,312.4,244.7,311.6z M281.2,311.5l-0.6-4.2C282,306.2,282.9,312.3,281.2,311.5z
	 M336.1,307.5l-2.7-3.3C334,302.5,338,307.3,336.1,307.5z M380.7,307.2c-0.4-1.2-1.5-2.4-2.4-3.3C379.2,302,383.1,307.1,380.7,307.2
	z M243.8,304.8l-0.6-4.2C244.6,299.5,245.5,305.6,243.8,304.8z M280.3,304.7c0.2-0.9-1.7-4.9,0.6-4.3
	C280.5,301.1,282.1,304.8,280.3,304.7z M331.7,302.2l-2.7-3.3C329.6,297.2,333.6,302,331.7,302.2z M376.7,302l-2.8-3.2
	C374.5,297,378.6,301.7,376.7,302z M283.6,301.1c-1.1-1.4,5.1-2.3,4.3-0.6L283.6,301.1z M290.4,300.2c-1.1-1.4,5.1-2.3,4.3-0.6
	C294.7,299.6,290.4,300.2,290.4,300.2z M297.2,299.3c-1.1-1.4,5.1-2.3,4.3-0.6C301.5,298.7,297.2,299.3,297.2,299.3z M304,298.3
	c-1.1-1.7,3.5-1.2,4.1-1.6C309.3,298.4,304.6,297.9,304,298.3z M242.8,298c0.2-0.6-1.6-5.2,0.4-4.4C243,294.2,244.9,298.7,242.8,298
	z M310.8,297.4c-1.1-1.4,5.1-2.3,4.3-0.6C315.1,296.8,310.8,297.4,310.8,297.4z M327.3,296.9c-0.6-1-1.6-2-2.9-1.4
	C323.7,292.4,330.1,295.7,327.3,296.9z M372.1,296.8l-2.8-3.2C369.9,291.8,374,296.5,372.1,296.8z M317.6,296.5
	c-1.1-1.4,5.1-2.3,4.3-0.6L317.6,296.5z M367.6,291.7l-2.8-3.2C365.4,286.7,369.5,291.4,367.6,291.7z M241.9,291.2l-0.6-4.2
	C242.7,285.9,243.6,292,241.9,291.2z M363,286.5c0.1-0.3-4-3.7-2.7-3.8C361,283,364.4,285.6,363,286.5z M241,284.4l-0.6-4.2
	C241.8,279.1,242.7,285.2,241,284.4z M363.1,281.7c-1.6-1.1,1.6-2.5,2.2-3.7C367.1,278.9,363.9,280.5,363.1,281.7z M240,277.6
	l-0.6-4.2C240.8,272.3,241.7,278.4,240,277.6z M367.7,276.5c-1.7-0.8,1.2-2.8,1.4-4.2C371.1,272.9,368.3,275.2,367.7,276.5z
	 M239.1,270.8c0.2-0.6-1.6-5.2,0.4-4.4C239.3,267,241.2,271.5,239.1,270.8z M371.1,270.4c-1.9-0.5,0.5-2.9,0.5-4.4
	C373.7,266.2,371.4,269.1,371.1,270.4z M275.5,269.6c-1-2.7,0.4-6,0.9-1.1C278.3,268.4,276.7,269.9,275.5,269.6z M279.7,269
	c-1.1-1.4,5.1-2.3,4.3-0.6L279.7,269z M286.5,268.1c-1.1-1.4,5.1-2.3,4.3-0.6L286.5,268.1z M293.3,267.1c-1.1-1.7,3.5-1.2,4.1-1.6
	C298.6,267.2,293.9,266.7,293.3,267.1z M300.1,266.2c-1.1-1.7,3.5-1.2,4.1-1.6C305.4,266.3,300.7,265.8,300.1,266.2z M306.9,265.3
	c-1.1-1.4,5.1-2.3,4.3-0.6C311.2,264.7,306.9,265.3,306.9,265.3z M313.7,264.3c-1.1-1.4,5.1-2.3,4.3-0.6
	C318,263.7,313.7,264.3,313.7,264.3z M238.2,264c0.2-0.6-1.6-5.2,0.4-4.4C238.4,260.2,240.3,264.7,238.2,264z M373.1,263.8
	c-2,0-0.1-3-0.4-4.4C374.7,259.2,373.1,262.4,373.1,263.8z M274.7,263.5c0.2-0.6-1.6-5.2,0.4-4.4
	C274.9,259.7,276.8,264.2,274.7,263.5z M320.5,263.4c-1.1-1.7,3.5-1.2,4.1-1.6C325.8,263.5,321.1,263,320.5,263.4z M327.3,262.5
	c-0.8-1.9,3.1-1.1,3.9-1.8C332.2,262.5,328.9,261.8,327.3,262.5z M334.1,260.8c-1-1.7,2.2-1.4,2.4-3.3
	C339,258,335.4,260.3,334.1,260.8z M274.4,257.9c-1.1-1.4,5.1-2.3,4.3-0.6C278.7,257.3,274.4,257.9,274.4,257.9z M237.3,257.2
	l-0.6-4.2C238.1,251.9,239,258,237.3,257.2z M281.2,257c-1.1-1.4,5.1-2.3,4.3-0.6L281.2,257z M373.8,256.9c-0.5,0-1.2,0.2-1-0.6
	C372.2,251,374.6,252.7,373.8,256.9z M288,256.1c-1.1-1.7,3.5-1.2,4.1-1.6C293.3,256.2,288.6,255.7,288,256.1z M294.8,255.2
	c-1.1-1.4,5.1-2.3,4.3-0.6C299.1,254.6,294.8,255.2,294.8,255.2z M336.5,255.1c-2-4.3-0.3-5.4,0.9-0.5
	C337.6,255.2,336.9,255.1,336.5,255.1z M301.6,254.2c-1.1-1.4,5.1-2.3,4.3-0.6C305.9,253.6,301.6,254.2,301.6,254.2z M308.4,253.3
	c-1.1-1.7,3.5-1.2,4.1-1.6C313.7,253.4,309,252.9,308.4,253.3z M315.2,252.4c-1.1-1.7,3.5-1.2,4.1-1.6
	C320.5,252.5,315.8,252,315.2,252.4z M322,251.4c-0.8-1.5,1.8-1.1,2.5-1.4C329,249.8,323.8,251.5,322,251.4z M333,250.8
	c-1-0.6-4.6,0.9-4.2-1.1C330.4,249.8,333.8,248.8,333,250.8z M236.3,250.4c0.2-0.6-1.6-5.2,0.4-4.4
	C236.5,246.6,238.4,251.1,236.3,250.4z M372.4,250.1c0.1-1.4-1.7-4.4,0.2-4.4C372.6,246.9,374.4,250.2,372.4,250.1z M235.4,243.7
	c0.2-0.6-1.6-5.2,0.4-4.4C235.6,239.9,237.5,244.4,235.4,243.7z M371.1,243.4c0-1.5-2.2-3.9-0.4-4.4
	C370.9,240.3,373.2,243.2,371.1,243.4z M368.8,237.1c-0.2-1.4-2.9-3.5-1.2-4.2C368.1,234.1,370.8,236.6,368.8,237.1z M234.5,236.9
	c-0.2-1.2-0.6-5.2,1.3-4C234.8,234.2,236.4,237,234.5,236.9z M365.3,231.3c-0.5-1.3-3.6-2.8-2-3.9
	C364,228.5,367.2,230.3,365.3,231.3z M237.2,230.8c-1.8-1.3,2.1-2.6,3.3-2.8C241.2,229.7,237.9,229.2,237.2,230.8z M243.1,228.6
	c-1.1-1.7,3.5-1.2,4.1-1.6C248.4,228.7,243.7,228.2,243.1,228.6z M249.9,227.7c-1.1-1.4,5.1-2.3,4.3-0.6
	C254.2,227.1,249.9,227.7,249.9,227.7z M256.7,226.7c-1.1-1.4,5.1-2.3,4.3-0.6C261,226.1,256.7,226.7,256.7,226.7z M360.8,226.3
	c-0.8-0.9-5-3.3-2.4-3.1C359.3,224,362.5,225.1,360.8,226.3z M263.5,225.8c-1.1-1.7,3.5-1.2,4.1-1.6
	C268.8,225.9,264.1,225.4,263.5,225.8z M270.3,224.9c-1.1-1.4,5.1-2.3,4.3-0.6C274.6,224.3,270.3,224.9,270.3,224.9z M277.1,223.9
	c-1.1-1.4,5.1-2.3,4.3-0.6C281.4,223.3,277.1,223.9,277.1,223.9z M283.9,223c-1.1-1.7,3.5-1.2,4.1-1.6
	C289.2,223.1,284.5,222.6,283.9,223z M355.3,222.4c-1-1-4.5-1.1-3.4-2.7C353.1,220.5,356.6,220.9,355.3,222.4z M290.7,222.1
	c-1.1-1.7,3.5-1.2,4.1-1.6C296,222.2,291.3,221.7,290.7,222.1z M297.5,221.1c-1.1-1.4,5.1-2.3,4.3-0.6L297.5,221.1z M304.3,220.2
	c-1.1-1.4,5.1-2.3,4.3-0.6C308.6,219.6,304.3,220.2,304.3,220.2z M349.1,219.7c-1.1-0.7-4.6-0.4-3.9-2.2
	C346.4,218,350.1,217.8,349.1,219.7z M311.1,219.3c-1.1-1.7,3.5-1.2,4.1-1.6C316.4,219.4,311.7,218.9,311.1,219.3z M317.9,218.4
	c-0.7-1.4,1.2-1.1,2-1.3C324.7,216.5,320.2,218.6,317.9,218.4z M342.5,218c-1.3-0.5-4.7,0.3-4.1-1.6
	C339.8,216.8,343.3,216.1,342.5,218z M324.7,217.5c-0.6-1.9,3-0.8,4.2-1.3C329.3,218.1,326.1,217,324.7,217.5z M335.7,217.3
	c-1.2-0.5-4.5,0.9-4.2-1.1C332.8,216.5,336.5,215.3,335.7,217.3z M102.4,362.2c-1.1-0.1-3.8,0-2.7-1.5
	C101.1,361.1,106.2,361.7,102.4,362.2z M106.4,361.6c-1.3-1.4,4.9-2.4,4.2-0.7L106.4,361.6z M113.2,360.5c-1.3-1.4,4.9-2.4,4.2-0.7
	C117.4,359.8,113.2,360.5,113.2,360.5z M97.1,360c-0.8-0.9-3.3-4.1-1.1-4.2C95.8,357.4,98.6,358.9,97.1,360z M119.9,359.3
	c-1.3-1.4,4.9-2.4,4.2-0.7C124.1,358.6,119.9,359.3,119.9,359.3z M126.7,358.1c-1.3-1.4,4.9-2.4,4.2-0.7L126.7,358.1z M133.4,357
	c-1.3-1.4,4.9-2.4,4.2-0.7C137.6,356.3,133.4,357,133.4,357z M140.2,355.8c-1.3-1.4,4.9-2.4,4.2-0.7
	C144.4,355.1,140.2,355.8,140.2,355.8z M94.8,354.7c0.2-0.7-1.7-5,0.3-4.4C94.9,351,96.8,355.2,94.8,354.7z M147,354.6
	c-1.3-1.4,4.9-2.4,4.2-0.7L147,354.6z M153.7,353.5c-1.3-1.4,4.9-2.4,4.2-0.7L153.7,353.5z M160.5,352.3c-1.3-1.4,4.9-2.4,4.2-0.7
	C164.7,351.6,160.5,352.3,160.5,352.3z M167.2,351.1c-1.3-1.4,4.9-2.4,4.2-0.7L167.2,351.1z M174,350c-1.3-1.4,4.9-2.4,4.2-0.7
	L174,350z M180.8,348.8c-1.3-1.4,4.9-2.4,4.2-0.7C185,348.1,180.8,348.8,180.8,348.8z M93.7,348c0.2-0.7-1.7-5,0.3-4.4
	C93.8,344.3,95.7,348.5,93.7,348z M187.5,347.6c-1.3-1.4,4.9-2.4,4.2-0.7L187.5,347.6z M194.3,346.4c-0.8-1.9,2.8-1.3,4-1.9
	C199.1,346.3,195.6,345.9,194.3,346.4z M201,344.9c-1-1.8,2.7-1.5,3.8-2.3C205.7,344.3,202.2,344.2,201,344.9z M207.6,342.6
	c-1.1-1.6,2.5-1.7,3.5-2.6C212.3,341.6,208.7,341.8,207.6,342.6z M92.5,341.2c0.2-0.7-1.7-5,0.3-4.4
	C92.6,337.5,94.5,341.7,92.5,341.2z M213.8,339.7c-1.3-1.5,2.3-2.1,3.1-3.2C218.4,337.9,214.8,338.6,213.8,339.7z M219.5,335.7
	c-1.4-1.3,1.7-2.4,2.4-3.7C223.5,333.1,220.3,334.6,219.5,335.7z M91.3,334.5c0.2-0.7-1.7-5,0.3-4.4C91.4,330.8,93.3,335,91.3,334.5
	z M224.3,330.7c-1.7-0.9,1.2-2.7,1.5-4.1C227.8,327.2,224.9,329.4,224.3,330.7z M90.2,327.7c0.2-0.7-1.7-5,0.3-4.4
	C90.3,324,92.2,328.2,90.2,327.7z M127.6,326c-1.3-1.4,4.9-2.4,4.2-0.7L127.6,326z M134.4,324.8c-1.3-1.4,4.9-2.4,4.2-0.7
	C138.6,324.1,134.4,324.8,134.4,324.8z M227.8,324.6c-1.9-0.5,0.5-2.9,0.4-4.4C230.3,320.2,227.9,323.4,227.8,324.6z M141.2,323.6
	c-1.3-1.4,4.9-2.4,4.2-0.7L141.2,323.6z M126.2,323.6l-0.8-4.6C126.4,318,128.2,324.2,126.2,323.6z M147.9,322.5
	c-1.3-1.4,4.9-2.4,4.2-0.7C152.1,321.8,147.9,322.5,147.9,322.5z M154.7,321.3c-1.3-1.4,4.9-2.4,4.2-0.7
	C158.9,320.6,154.7,321.3,154.7,321.3z M89,320.9c0.2-0.7-1.7-5,0.3-4.4C89.1,317.2,91,321.4,89,320.9z M161.4,320.1
	c-1.3-1.4,4.9-2.4,4.2-0.7C165.6,319.4,161.4,320.1,161.4,320.1z M128.7,319.4c-1.3-1.4,4.9-2.4,4.2-0.7
	C132.9,318.7,128.7,319.4,128.7,319.4z M168.2,319c-1.3-1.4,4.9-2.4,4.2-0.7L168.2,319z M135.4,318.2c-1.3-1.4,4.9-2.4,4.2-0.7
	C139.6,317.5,135.4,318.2,135.4,318.2z M229.6,317.9c-1.9,0.2-0.3-2.9-0.7-4.3C231,313.2,229.4,316.5,229.6,317.9z M175,317.8
	c-1.3-1.4,4.9-2.4,4.2-0.7C179.2,317.1,175,317.8,175,317.8z M142.2,317.1c-1.3-1.4,4.9-2.4,4.2-0.7L142.2,317.1z M181.7,316.6
	c-1.3-1.4,4.9-2.4,4.2-0.7L181.7,316.6z M149,315.9c-1.3-1.4,4.9-2.4,4.2-0.7C153.2,315.2,149,315.9,149,315.9z M188.5,315.4
	c-0.7-1.7,4-2,3.5-2.5C193.7,314.1,191.1,314.7,188.5,315.4z M155.7,314.7c-1.3-1.4,4.9-2.4,4.2-0.7L155.7,314.7z M87.8,314.2
	c0.2-0.7-1.7-5,0.3-4.4C87.9,310.5,89.8,314.7,87.8,314.2z M162.5,313.6c-1.3-1.4,4.9-2.4,4.2-0.7L162.5,313.6z M169.2,312.4
	c-1.3-1.4,4.9-2.4,4.2-0.7C173.4,311.7,169.2,312.4,169.2,312.4z M176,311.2c-1.3-1.4,4.9-2.4,4.2-0.7L176,311.2z M228.7,311
	c0.3-1.4-1.7-4.4,0.3-4.4C229,307.9,230.8,311.1,228.7,311z M192.2,310.9c0.5-1.6-2.8-0.9-2.7-2.7
	C192.6,308.1,194.3,310.7,192.2,310.9z M182.8,310.1c-1.1-1.7,3.3-1.4,4.1-1.7C187.8,310.1,183.7,309.6,182.8,310.1z M86.7,307.4
	c0.2-0.7-1.7-5,0.3-4.4C86.8,303.7,88.7,307.9,86.7,307.4z M227.4,304.4c0-1.5-2.4-3.9-0.5-4.4C227.2,301.3,229.5,304.2,227.4,304.4
	z M85.5,300.7c0.2-0.7-1.7-5,0.3-4.4C85.6,297,87.5,301.2,85.5,300.7z M224.9,298.2c-0.4-1.5-3.3-3.1-1.6-4.1
	C223.9,295.2,226.9,297.5,224.9,298.2z M84.3,293.9c0.2-0.7-1.7-5,0.3-4.4C84.4,290.2,86.3,294.4,84.3,293.9z M220.7,293
	c-0.7-1.2-4.1-1.9-2.9-3.4C218.8,290.5,222.2,291.6,220.7,293z M123.2,289.8c-1.3-1.4,4.9-2.4,4.2-0.7
	C127.4,289.1,123.2,289.8,123.2,289.8z M120.3,289.5c0.2-0.7-1.7-5,0.3-4.4C120.4,285.8,122.3,290,120.3,289.5z M215.1,289.3
	c-2.5-0.9-3-1-1.1-3.2C214.7,287,214.6,287.9,215.1,289.3z M130,288.6c-1.3-1.4,4.9-2.4,4.2-0.7L130,288.6z M136.7,287.4
	c-1.3-1.4,4.9-2.4,4.2-0.7C140.9,286.7,136.7,287.4,136.7,287.4z M83.2,287.1c0.2-0.7-1.7-5,0.3-4.4
	C83.3,283.4,85.2,287.6,83.2,287.1z M143.5,286.3c-1.3-1.4,4.9-2.4,4.2-0.7C147.7,285.6,143.5,286.3,143.5,286.3z M150.3,285.1
	c-1.3-1.4,4.9-2.4,4.2-0.7L150.3,285.1z M216.3,284.3c-1.9-0.4,0.6-2.9,0.5-4.3C218.9,280.2,216.6,282.9,216.3,284.3z M119.9,284.1
	c-1.3-1.4,4.9-2.4,4.2-0.7L119.9,284.1z M157,283.9c-1.3-1.4,4.9-2.4,4.2-0.7C161.2,283.2,157,283.9,157,283.9z M126.7,282.9
	c-1.3-1.4,4.9-2.4,4.2-0.7C130.9,282.2,126.7,282.9,126.7,282.9z M163.8,282.8c-1.3-1.4,4.9-2.4,4.2-0.7
	C168,282.1,163.8,282.8,163.8,282.8z M133.4,281.8c-1.3-1.4,4.9-2.4,4.2-0.7C137.6,281.1,133.4,281.8,133.4,281.8z M170.5,281.6
	c-1.3-1.4,4.9-2.4,4.2-0.7L170.5,281.6z M140.2,280.6c-1.3-1.4,4.9-2.4,4.2-0.7L140.2,280.6z M177.3,280.4c0-0.2-0.5-1.2,0.1-1.1
	C182.7,277.7,181.9,279.5,177.3,280.4z M82,280.4c0.2-0.7-1.7-5,0.3-4.4C82.1,276.7,84,280.9,82,280.4z M146.9,279.4
	c-1.3-1.4,4.9-2.4,4.2-0.7C151.1,278.7,146.9,279.4,146.9,279.4z M153.7,278.3c-1.3-1.4,4.9-2.4,4.2-0.7
	C157.9,277.6,153.7,278.3,153.7,278.3z M218.3,277.6c-1.9,0-0.3-2.8-0.7-4.4C219.7,272.8,218.2,276.4,218.3,277.6z M182.4,277.1
	c-0.1-1.2-0.1-2.3-1.8-2.8C181.3,271.2,185.1,277.5,182.4,277.1z M160.5,277.1c-1.3-1.4,4.9-2.4,4.2-0.7L160.5,277.1z M167.2,275.9
	c-1.3-1.4,4.9-2.4,4.2-0.7C171.4,275.2,167.2,275.9,167.2,275.9z M174,274.8c-1.1-1.5,5-2.4,4.2-0.7C177,274,175.2,274.5,174,274.8z
	 M80.8,273.6c0.2-0.7-1.7-5,0.3-4.4C80.9,269.9,82.8,274.1,80.8,273.6z M217.6,270.7c-0.4-1.4-0.3-5.1,0-4.2
	C218.5,266.3,219.3,271.2,217.6,270.7z M79.7,266.9c-1.3-2.3,1.1-7.1,0.7-2.3C80.3,265.6,81.4,266.9,79.7,266.9z M216.5,264
	c0.1-1.5-2.3-3.9-0.4-4.4C216.2,260.7,218.4,263.8,216.5,264z M81.7,260.6c-1.9-1,1.7-2.7,2.9-3.2C85.5,259,82.5,258.9,81.7,260.6z
	 M87.4,257.9c-1.3-1.4,4.9-2.4,4.2-0.7C91.6,257.2,87.4,257.9,87.4,257.9z M214.3,257.7c-0.2-1.5-3-3.3-1.3-4.2
	C213.5,254.6,216.3,257.1,214.3,257.7z M94.2,256.7c-1.3-1.4,4.9-2.4,4.2-0.7C98.4,256,94.2,256.7,94.2,256.7z M100.9,255.5
	c-1.3-1.4,4.9-2.4,4.2-0.7L100.9,255.5z M107.7,254.4c-1.3-1.4,4.9-2.4,4.2-0.7C111.9,253.7,107.7,254.4,107.7,254.4z M114.5,253.2
	c-1.3-1.4,4.9-2.4,4.2-0.7L114.5,253.2z M210.6,252.1c-0.6-1.4-3.8-2.4-2.4-3.7C209,249.4,212.3,251.1,210.6,252.1z M121.2,252
	c-1.3-1.4,4.9-2.4,4.2-0.7C125.4,251.3,121.2,252,121.2,252z M128,250.8c-1.3-1.4,4.9-2.4,4.2-0.7L128,250.8z M134.7,249.7
	c-1.3-1.4,4.9-2.4,4.2-0.7L134.7,249.7z M141.5,248.5c-1.3-1.4,4.9-2.4,4.2-0.7L141.5,248.5z M205.6,247.6c-0.8-1.1-4.4-1.4-3.3-3
	C203.4,245.4,206.9,246,205.6,247.6z M148.3,247.3c-1.3-1.4,4.9-2.4,4.2-0.7L148.3,247.3z M155,246.2c-1.3-1.4,4.9-2.4,4.2-0.7
	L155,246.2z M161.8,245c-1.3-1.4,4.9-2.4,4.2-0.7L161.8,245z M199.6,244.6c-1.1-0.9-4.5-0.4-3.8-2.2
	C197,243,200.8,242.8,199.6,244.6z M168.5,243.8c-0.8-1.5,1.2-1.1,2-1.4C175.4,241.8,170.8,243.9,168.5,243.8z M193.1,242.9
	c-1.2-0.6-4.7,0.4-4.1-1.5C190.4,241.8,193.9,241,193.1,242.9z M175.3,242.8c-0.5-2,3-1,4.2-1.4
	C180.1,243.3,176.6,242.2,175.3,242.8z M182.1,242.2c-0.3-2,3-0.8,4.3-1C186.8,243.1,183.6,241.8,182.1,242.2z"/>
</svg>
